<?xml version="1.0" encoding="utf-8" standalone="no"?>
<!DOCTYPE svg PUBLIC "-//W3C//DTD SVG 1.1//EN"
  "http://www.w3.org/Graphics/SVG/1.1/DTD/svg11.dtd">
<svg xmlns:xlink="http://www.w3.org/1999/xlink" width="767.7pt" height="413.568pt" viewBox="0 0 767.7 413.568" xmlns="http://www.w3.org/2000/svg" version="1.1">
 <metadata>
  <rdf:RDF xmlns:dc="http://purl.org/dc/elements/1.1/" xmlns:cc="http://creativecommons.org/ns#" xmlns:rdf="http://www.w3.org/1999/02/22-rdf-syntax-ns#">
   <cc:Work>
    <dc:type rdf:resource="http://purl.org/dc/dcmitype/StillImage"/>
    <dc:date>2026-06-27T13:13:00.055993</dc:date>
    <dc:format>image/svg+xml</dc:format>
    <dc:creator>
     <cc:Agent>
      <dc:title>Matplotlib v3.11.0, https://matplotlib.org/</dc:title>
     </cc:Agent>
    </dc:creator>
   </cc:Work>
  </rdf:RDF>
 </metadata>
 <defs>
  <style type="text/css">*{stroke-linejoin: round; stroke-linecap: butt}</style>
 </defs>
 <g id="figure_1">
  <g id="patch_1">
   <path d="M 0 413.568 
L 767.7 413.568 
L 767.7 0 
L 0 0 
z
" style="fill: #ffffff"/>
  </g>
  <g id="axes_1">
   <g id="patch_2">
    <path d="M 44.865 213.222194 
L 240.723 213.222194 
L 240.723 39.390968 
L 44.865 39.390968 
L 44.865 213.222194 
z
" clip-path="url(#p4b19a5cfe7)" style="fill: none; stroke-dasharray: 7.8,3.9; stroke-dashoffset: 0; stroke: #64748b; stroke-width: 1.3; stroke-linejoin: miter"/>
   </g>
   <g id="patch_3">
    <path d="M 308.52 213.222194 
L 624.906 213.222194 
L 624.906 39.390968 
L 308.52 39.390968 
L 308.52 213.222194 
z
" clip-path="url(#p4b19a5cfe7)" style="fill: none; stroke-dasharray: 7.8,3.9; stroke-dashoffset: 0; stroke: #64748b; stroke-width: 1.3; stroke-linejoin: miter"/>
   </g>
   <g id="text_1">
    <!-- KLIENSEK -->
    <g style="fill: #64748b" transform="translate(56.9178 54.994894) scale(0.105 -0.105)">
     <defs>
      <path id="DejaVuSans-Bold-2e" d="M 588 4666 
L 1791 4666 
L 1791 2963 
L 3525 4666 
L 4922 4666 
L 2675 2456 
L 5153 0 
L 3647 0 
L 1791 1838 
L 1791 0 
L 588 0 
L 588 4666 
z
" transform="scale(0.015625)"/>
      <path id="DejaVuSans-Bold-2f" d="M 588 4666 
L 1791 4666 
L 1791 909 
L 3903 909 
L 3903 0 
L 588 0 
L 588 4666 
z
" transform="scale(0.015625)"/>
      <path id="DejaVuSans-Bold-2c" d="M 588 4666 
L 1791 4666 
L 1791 0 
L 588 0 
L 588 4666 
z
" transform="scale(0.015625)"/>
      <path id="DejaVuSans-Bold-28" d="M 588 4666 
L 3834 4666 
L 3834 3756 
L 1791 3756 
L 1791 2888 
L 3713 2888 
L 3713 1978 
L 1791 1978 
L 1791 909 
L 3903 909 
L 3903 0 
L 588 0 
L 588 4666 
z
" transform="scale(0.015625)"/>
      <path id="DejaVuSans-Bold-31" d="M 588 4666 
L 1931 4666 
L 3628 1466 
L 3628 4666 
L 4769 4666 
L 4769 0 
L 3425 0 
L 1728 3200 
L 1728 0 
L 588 0 
L 588 4666 
z
" transform="scale(0.015625)"/>
      <path id="DejaVuSans-Bold-36" d="M 3834 4519 
L 3834 3531 
Q 3450 3703 3084 3790 
Q 2719 3878 2394 3878 
Q 1963 3878 1756 3759 
Q 1550 3641 1550 3391 
Q 1550 3203 1689 3098 
Q 1828 2994 2194 2919 
L 2706 2816 
Q 3484 2659 3812 2340 
Q 4141 2022 4141 1434 
Q 4141 663 3683 286 
Q 3225 -91 2284 -91 
Q 1841 -91 1394 -6 
Q 947 78 500 244 
L 500 1259 
Q 947 1022 1364 901 
Q 1781 781 2169 781 
Q 2563 781 2772 912 
Q 2981 1044 2981 1288 
Q 2981 1506 2839 1625 
Q 2697 1744 2272 1838 
L 1806 1941 
Q 1106 2091 782 2419 
Q 459 2747 459 3303 
Q 459 4000 909 4375 
Q 1359 4750 2203 4750 
Q 2588 4750 2994 4692 
Q 3400 4634 3834 4519 
z
" transform="scale(0.015625)"/>
     </defs>
     <use xlink:href="#DejaVuSans-Bold-2e"/>
     <use xlink:href="#DejaVuSans-Bold-2f" transform="translate(77.484375 0)"/>
     <use xlink:href="#DejaVuSans-Bold-2c" transform="translate(141.203125 0)"/>
     <use xlink:href="#DejaVuSans-Bold-28" transform="translate(178.40625 0)"/>
     <use xlink:href="#DejaVuSans-Bold-31" transform="translate(246.71875 0)"/>
     <use xlink:href="#DejaVuSans-Bold-36" transform="translate(330.40625 0)"/>
     <use xlink:href="#DejaVuSans-Bold-28" transform="translate(402.421875 0)"/>
     <use xlink:href="#DejaVuSans-Bold-2e" transform="translate(470.734375 0)"/>
    </g>
   </g>
   <g id="text_2">
    <!-- BACKEND -->
    <g style="fill: #64748b" transform="translate(320.5728 54.994894) scale(0.105 -0.105)">
     <defs>
      <path id="DejaVuSans-Bold-25" d="M 2456 2859 
Q 2741 2859 2887 2984 
Q 3034 3109 3034 3353 
Q 3034 3594 2887 3720 
Q 2741 3847 2456 3847 
L 1791 3847 
L 1791 2859 
L 2456 2859 
z
M 2497 819 
Q 2859 819 3042 972 
Q 3225 1125 3225 1434 
Q 3225 1738 3044 1889 
Q 2863 2041 2497 2041 
L 1791 2041 
L 1791 819 
L 2497 819 
z
M 3616 2497 
Q 4003 2384 4215 2081 
Q 4428 1778 4428 1338 
Q 4428 663 3972 331 
Q 3516 0 2584 0 
L 588 0 
L 588 4666 
L 2394 4666 
Q 3366 4666 3802 4372 
Q 4238 4078 4238 3431 
Q 4238 3091 4078 2852 
Q 3919 2613 3616 2497 
z
" transform="scale(0.015625)"/>
      <path id="DejaVuSans-Bold-24" d="M 3419 850 
L 1538 850 
L 1241 0 
L 31 0 
L 1759 4666 
L 3194 4666 
L 4922 0 
L 3713 0 
L 3419 850 
z
M 1838 1716 
L 3116 1716 
L 2478 3572 
L 1838 1716 
z
" transform="scale(0.015625)"/>
      <path id="DejaVuSans-Bold-26" d="M 4288 256 
Q 3956 84 3597 -3 
Q 3238 -91 2847 -91 
Q 1681 -91 1000 561 
Q 319 1213 319 2328 
Q 319 3447 1000 4098 
Q 1681 4750 2847 4750 
Q 3238 4750 3597 4662 
Q 3956 4575 4288 4403 
L 4288 3438 
Q 3953 3666 3628 3772 
Q 3303 3878 2944 3878 
Q 2300 3878 1931 3465 
Q 1563 3053 1563 2328 
Q 1563 1606 1931 1193 
Q 2300 781 2944 781 
Q 3303 781 3628 887 
Q 3953 994 4288 1222 
L 4288 256 
z
" transform="scale(0.015625)"/>
      <path id="DejaVuSans-Bold-27" d="M 1791 3756 
L 1791 909 
L 2222 909 
Q 2959 909 3348 1275 
Q 3738 1641 3738 2338 
Q 3738 3031 3350 3393 
Q 2963 3756 2222 3756 
L 1791 3756 
z
M 588 4666 
L 1856 4666 
Q 2919 4666 3439 4514 
Q 3959 4363 4331 4000 
Q 4659 3684 4818 3271 
Q 4978 2859 4978 2338 
Q 4978 1809 4818 1395 
Q 4659 981 4331 666 
Q 3956 303 3431 151 
Q 2906 0 1856 0 
L 588 0 
L 588 4666 
z
" transform="scale(0.015625)"/>
     </defs>
     <use xlink:href="#DejaVuSans-Bold-25"/>
     <use xlink:href="#DejaVuSans-Bold-24" transform="translate(76.21875 0)"/>
     <use xlink:href="#DejaVuSans-Bold-26" transform="translate(153.609375 0)"/>
     <use xlink:href="#DejaVuSans-Bold-2e" transform="translate(227 0)"/>
     <use xlink:href="#DejaVuSans-Bold-28" transform="translate(304.484375 0)"/>
     <use xlink:href="#DejaVuSans-Bold-31" transform="translate(372.796875 0)"/>
     <use xlink:href="#DejaVuSans-Bold-27" transform="translate(456.484375 0)"/>
    </g>
   </g>
   <g id="line2d_1">
    <path d="M 218.124 90.896516 
L 331.119 90.896516 
" clip-path="url(#p4b19a5cfe7)" style="fill: none; stroke: #1f2933; stroke-width: 1.3; stroke-linecap: round"/>
   </g>
   <g id="patch_4">
    <path d="M 218.124 90.896516 
Q 274.123216 90.896516 328.668987 90.896516 
" style="fill: none; stroke: #1f2933; stroke-width: 1.3; stroke-linecap: round"/>
    <path d="M 324.668987 88.896516 
L 328.668987 90.896516 
L 324.668987 92.896516 
z
" style="fill: #1f2933; stroke: #1f2933; stroke-width: 1.3; stroke-linecap: round"/>
   </g>
   <g id="line2d_2">
    <path d="M 218.124 168.154839 
L 331.119 168.154839 
" clip-path="url(#p4b19a5cfe7)" style="fill: none; stroke: #1f2933; stroke-width: 1.3; stroke-linecap: round"/>
   </g>
   <g id="patch_5">
    <path d="M 218.124 168.154839 
Q 274.123216 168.154839 328.668987 168.154839 
" style="fill: none; stroke: #1f2933; stroke-width: 1.3; stroke-linecap: round"/>
    <path d="M 324.668987 166.154839 
L 328.668987 168.154839 
L 324.668987 170.154839 
z
" style="fill: #1f2933; stroke: #1f2933; stroke-width: 1.3; stroke-linecap: round"/>
   </g>
   <g id="line2d_3">
    <path d="M 466.713 90.896516 
L 489.312 90.896516 
L 489.312 116.64929 
L 504.378 116.64929 
" clip-path="url(#p4b19a5cfe7)" style="fill: none; stroke: #1f2933; stroke-width: 1.3; stroke-linecap: round"/>
   </g>
   <g id="patch_6">
    <path d="M 489.312 116.64929 
Q 496.346601 116.64929 501.927757 116.64929 
" style="fill: none; stroke: #1f2933; stroke-width: 1.3; stroke-linecap: round"/>
    <path d="M 497.927757 114.64929 
L 501.927757 116.64929 
L 497.927757 118.64929 
z
" style="fill: #1f2933; stroke: #1f2933; stroke-width: 1.3; stroke-linecap: round"/>
   </g>
   <g id="line2d_4">
    <path d="M 466.713 168.154839 
L 489.312 168.154839 
L 489.312 135.963871 
L 504.378 135.963871 
" clip-path="url(#p4b19a5cfe7)" style="fill: none; stroke: #1f2933; stroke-width: 1.3; stroke-linecap: round"/>
   </g>
   <g id="patch_7">
    <path d="M 489.312 135.963871 
Q 496.346601 135.963871 501.927757 135.963871 
" style="fill: none; stroke: #1f2933; stroke-width: 1.3; stroke-linecap: round"/>
    <path d="M 497.927757 133.963871 
L 501.927757 135.963871 
L 497.927757 137.963871 
z
" style="fill: #1f2933; stroke: #1f2933; stroke-width: 1.3; stroke-linecap: round"/>
   </g>
   <g id="line2d_5">
    <path d="M 594.774 126.306581 
L 647.505 126.306581 
" clip-path="url(#p4b19a5cfe7)" style="fill: none; stroke: #1f2933; stroke-width: 1.3; stroke-linecap: round"/>
   </g>
   <g id="patch_8">
    <path d="M 594.774 126.306581 
Q 620.639032 126.306581 645.050619 126.306581 
" style="fill: none; stroke: #1f2933; stroke-width: 1.3; stroke-linecap: round"/>
    <path d="M 641.050619 124.306581 
L 645.050619 126.306581 
L 641.050619 128.306581 
z
" style="fill: #1f2933; stroke: #1f2933; stroke-width: 1.3; stroke-linecap: round"/>
   </g>
   <g id="line2d_6">
    <path d="M 398.916 193.907613 
L 398.916 296.91871 
L 677.637 296.91871 
L 677.637 309.795097 
" clip-path="url(#p4b19a5cfe7)" style="fill: none; stroke: #1f2933; stroke-width: 1.3; stroke-linecap: round"/>
   </g>
   <g id="patch_9">
    <path d="M 677.637 296.91871 
Q 677.637 302.855491 677.637 307.338828 
" style="fill: none; stroke: #1f2933; stroke-width: 1.3; stroke-linecap: round"/>
    <path d="M 679.637 303.338828 
L 677.637 307.338828 
L 675.637 303.338828 
z
" style="fill: #1f2933; stroke: #1f2933; stroke-width: 1.3; stroke-linecap: round"/>
   </g>
   <g id="line2d_7">
    <path d="M 346.185 193.907613 
L 346.185 313.014194 
" clip-path="url(#p4b19a5cfe7)" style="fill: none; stroke: #1f2933; stroke-width: 1.3; stroke-linecap: round"/>
   </g>
   <g id="patch_10">
    <path d="M 346.185 193.907613 
Q 346.185 252.961112 346.185 310.561167 
" style="fill: none; stroke: #1f2933; stroke-width: 1.3; stroke-linecap: round"/>
    <path d="M 348.185 306.561167 
L 346.185 310.561167 
L 344.185 306.561167 
z
" style="fill: #1f2933; stroke: #1f2933; stroke-width: 1.3; stroke-linecap: round"/>
   </g>
   <g id="line2d_8">
    <path d="M 142.794 193.907613 
L 142.794 313.014194 
" clip-path="url(#p4b19a5cfe7)" style="fill: none; stroke: #1f2933; stroke-width: 1.3; stroke-linecap: round"/>
   </g>
   <g id="patch_11">
    <path d="M 142.794 193.907613 
Q 142.794 252.961112 142.794 310.561167 
" style="fill: none; stroke: #1f2933; stroke-width: 1.3; stroke-linecap: round"/>
    <path d="M 144.794 306.561167 
L 142.794 310.561167 
L 140.794 306.561167 
z
" style="fill: #1f2933; stroke: #1f2933; stroke-width: 1.3; stroke-linecap: round"/>
   </g>
   <g id="patch_12">
    <path d="M 71.83314 116.778054 
L 213.75486 116.778054 
Q 218.27466 116.778054 218.27466 112.915138 
L 218.27466 68.877894 
Q 218.27466 65.014978 213.75486 65.014978 
L 71.83314 65.014978 
Q 67.31334 65.014978 67.31334 68.877894 
L 67.31334 112.915138 
Q 67.31334 116.778054 71.83314 116.778054 
z
" clip-path="url(#p4b19a5cfe7)" style="fill: #e0f2fe; stroke: #2563eb; stroke-width: 1.6; stroke-linejoin: miter"/>
   </g>
   <g id="patch_13">
    <path d="M 71.83314 194.036377 
L 213.75486 194.036377 
Q 218.27466 194.036377 218.27466 190.173461 
L 218.27466 146.136217 
Q 218.27466 142.273301 213.75486 142.273301 
L 71.83314 142.273301 
Q 67.31334 142.273301 67.31334 146.136217 
L 67.31334 190.173461 
Q 67.31334 194.036377 71.83314 194.036377 
z
" clip-path="url(#p4b19a5cfe7)" style="fill: #e0f2fe; stroke: #2563eb; stroke-width: 1.6; stroke-linejoin: miter"/>
   </g>
   <g id="patch_14">
    <path d="M 335.48814 116.778054 
L 462.34386 116.778054 
Q 466.86366 116.778054 466.86366 112.915138 
L 466.86366 68.877894 
Q 466.86366 65.014978 462.34386 65.014978 
L 335.48814 65.014978 
Q 330.96834 65.014978 330.96834 68.877894 
L 330.96834 112.915138 
Q 330.96834 116.778054 335.48814 116.778054 
z
" clip-path="url(#p4b19a5cfe7)" style="fill: #e0f2fe; stroke: #2563eb; stroke-width: 1.6; stroke-linejoin: miter"/>
   </g>
   <g id="patch_15">
    <path d="M 335.48814 194.036377 
L 462.34386 194.036377 
Q 466.86366 194.036377 466.86366 190.173461 
L 466.86366 146.136217 
Q 466.86366 142.273301 462.34386 142.273301 
L 335.48814 142.273301 
Q 330.96834 142.273301 330.96834 146.136217 
L 330.96834 190.173461 
Q 330.96834 194.036377 335.48814 194.036377 
z
" clip-path="url(#p4b19a5cfe7)" style="fill: #e0f2fe; stroke: #2563eb; stroke-width: 1.6; stroke-linejoin: miter"/>
   </g>
   <g id="patch_16">
    <path d="M 508.74714 155.407215 
L 590.40486 155.407215 
Q 594.92466 155.407215 594.92466 151.544299 
L 594.92466 101.068862 
Q 594.92466 97.205946 590.40486 97.205946 
L 508.74714 97.205946 
Q 504.22734 97.205946 504.22734 101.068862 
L 504.22734 151.544299 
Q 504.22734 155.407215 508.74714 155.407215 
z
" clip-path="url(#p4b19a5cfe7)" style="fill: #e0f2fe; stroke: #2563eb; stroke-width: 1.6; stroke-linejoin: miter"/>
   </g>
   <g id="text_3">
    <!-- GPU-szerver -->
    <g style="fill: #7c3aed" transform="translate(667.501055 90.404958) scale(0.105 -0.105)">
     <defs>
      <path id="DejaVuSans-Bold-2a" d="M 4781 347 
Q 4331 128 3847 18 
Q 3363 -91 2847 -91 
Q 1681 -91 1000 561 
Q 319 1213 319 2328 
Q 319 3456 1012 4103 
Q 1706 4750 2913 4750 
Q 3378 4750 3804 4662 
Q 4231 4575 4609 4403 
L 4609 3438 
Q 4219 3659 3833 3768 
Q 3447 3878 3059 3878 
Q 2341 3878 1952 3476 
Q 1563 3075 1563 2328 
Q 1563 1588 1938 1184 
Q 2313 781 3003 781 
Q 3191 781 3352 804 
Q 3513 828 3641 878 
L 3641 1784 
L 2906 1784 
L 2906 2591 
L 4781 2591 
L 4781 347 
z
" transform="scale(0.015625)"/>
      <path id="DejaVuSans-Bold-33" d="M 588 4666 
L 2584 4666 
Q 3475 4666 3951 4270 
Q 4428 3875 4428 3144 
Q 4428 2409 3951 2014 
Q 3475 1619 2584 1619 
L 1791 1619 
L 1791 0 
L 588 0 
L 588 4666 
z
M 1791 3794 
L 1791 2491 
L 2456 2491 
Q 2806 2491 2997 2661 
Q 3188 2831 3188 3144 
Q 3188 3456 2997 3625 
Q 2806 3794 2456 3794 
L 1791 3794 
z
" transform="scale(0.015625)"/>
      <path id="DejaVuSans-Bold-38" d="M 588 4666 
L 1791 4666 
L 1791 1869 
Q 1791 1291 1980 1042 
Q 2169 794 2597 794 
Q 3028 794 3217 1042 
Q 3406 1291 3406 1869 
L 3406 4666 
L 4609 4666 
L 4609 1869 
Q 4609 878 4112 393 
Q 3616 -91 2597 -91 
Q 1581 -91 1084 393 
Q 588 878 588 1869 
L 588 4666 
z
" transform="scale(0.015625)"/>
      <path id="DejaVuSans-Bold-10" d="M 347 2297 
L 2309 2297 
L 2309 1388 
L 347 1388 
L 347 2297 
z
" transform="scale(0.015625)"/>
      <path id="DejaVuSans-Bold-56" d="M 3272 3391 
L 3272 2541 
Q 2913 2691 2578 2766 
Q 2244 2841 1947 2841 
Q 1628 2841 1473 2761 
Q 1319 2681 1319 2516 
Q 1319 2381 1436 2309 
Q 1553 2238 1856 2203 
L 2053 2175 
Q 2913 2066 3209 1816 
Q 3506 1566 3506 1031 
Q 3506 472 3093 190 
Q 2681 -91 1863 -91 
Q 1516 -91 1145 -36 
Q 775 19 384 128 
L 384 978 
Q 719 816 1070 734 
Q 1422 653 1784 653 
Q 2113 653 2278 743 
Q 2444 834 2444 1013 
Q 2444 1163 2330 1236 
Q 2216 1309 1875 1350 
L 1678 1375 
Q 931 1469 631 1722 
Q 331 1975 331 2491 
Q 331 3047 712 3315 
Q 1094 3584 1881 3584 
Q 2191 3584 2531 3537 
Q 2872 3491 3272 3391 
z
" transform="scale(0.015625)"/>
      <path id="DejaVuSans-Bold-5d" d="M 366 3500 
L 3419 3500 
L 3419 2719 
L 1575 800 
L 3419 800 
L 3419 0 
L 288 0 
L 288 781 
L 2131 2700 
L 366 2700 
L 366 3500 
z
" transform="scale(0.015625)"/>
      <path id="DejaVuSans-Bold-48" d="M 4031 1759 
L 4031 1441 
L 1416 1441 
Q 1456 1047 1700 850 
Q 1944 653 2381 653 
Q 2734 653 3104 758 
Q 3475 863 3866 1075 
L 3866 213 
Q 3469 63 3072 -14 
Q 2675 -91 2278 -91 
Q 1328 -91 801 392 
Q 275 875 275 1747 
Q 275 2603 792 3093 
Q 1309 3584 2216 3584 
Q 3041 3584 3536 3087 
Q 4031 2591 4031 1759 
z
M 2881 2131 
Q 2881 2450 2695 2645 
Q 2509 2841 2209 2841 
Q 1884 2841 1681 2658 
Q 1478 2475 1428 2131 
L 2881 2131 
z
" transform="scale(0.015625)"/>
      <path id="DejaVuSans-Bold-55" d="M 3138 2547 
Q 2991 2616 2845 2648 
Q 2700 2681 2553 2681 
Q 2122 2681 1889 2404 
Q 1656 2128 1656 1613 
L 1656 0 
L 538 0 
L 538 3500 
L 1656 3500 
L 1656 2925 
Q 1872 3269 2151 3426 
Q 2431 3584 2822 3584 
Q 2878 3584 2943 3579 
Q 3009 3575 3134 3559 
L 3138 2547 
z
" transform="scale(0.015625)"/>
      <path id="DejaVuSans-Bold-59" d="M 97 3500 
L 1216 3500 
L 2088 1081 
L 2956 3500 
L 4078 3500 
L 2700 0 
L 1472 0 
L 97 3500 
z
" transform="scale(0.015625)"/>
     </defs>
     <use xlink:href="#DejaVuSans-Bold-2a"/>
     <use xlink:href="#DejaVuSans-Bold-33" transform="translate(82.078125 0)"/>
     <use xlink:href="#DejaVuSans-Bold-38" transform="translate(155.375 0)"/>
     <use xlink:href="#DejaVuSans-Bold-10" transform="translate(236.578125 0)"/>
     <use xlink:href="#DejaVuSans-Bold-56" transform="translate(278.078125 0)"/>
     <use xlink:href="#DejaVuSans-Bold-5d" transform="translate(337.59375 0)"/>
     <use xlink:href="#DejaVuSans-Bold-48" transform="translate(395.796875 0)"/>
     <use xlink:href="#DejaVuSans-Bold-55" transform="translate(463.625 0)"/>
     <use xlink:href="#DejaVuSans-Bold-59" transform="translate(512.9375 0)"/>
     <use xlink:href="#DejaVuSans-Bold-48" transform="translate(578.125 0)"/>
     <use xlink:href="#DejaVuSans-Bold-55" transform="translate(645.953125 0)"/>
    </g>
   </g>
   <g id="patch_17">
    <path d="M 651.87414 152.188119 
L 748.59786 152.188119 
Q 753.11766 152.188119 753.11766 148.325203 
L 753.11766 104.287959 
Q 753.11766 100.425043 748.59786 100.425043 
L 651.87414 100.425043 
Q 647.35434 100.425043 647.35434 104.287959 
L 647.35434 148.325203 
Q 647.35434 152.188119 651.87414 152.188119 
z
" clip-path="url(#p4b19a5cfe7)" style="fill: #ede9fe; stroke: #7c3aed; stroke-width: 1.6; stroke-linejoin: miter"/>
   </g>
   <g id="patch_18">
    <path d="M 614.20914 361.429409 
L 741.06486 361.429409 
Q 745.58466 361.429409 745.58466 357.566493 
L 745.58466 313.529249 
Q 745.58466 309.666333 741.06486 309.666333 
L 614.20914 309.666333 
Q 609.68934 309.666333 609.68934 313.529249 
L 609.68934 357.566493 
Q 609.68934 361.429409 614.20914 361.429409 
z
" clip-path="url(#p4b19a5cfe7)" style="fill: #fff7ed; stroke: #ea580c; stroke-width: 1.6; stroke-linejoin: miter"/>
   </g>
   <g id="patch_19">
    <path d="M 49.23414 367.867603 
L 439.74486 367.867603 
Q 444.26466 367.867603 444.26466 364.004686 
L 444.26466 316.748346 
Q 444.26466 312.88543 439.74486 312.88543 
L 49.23414 312.88543 
Q 44.71434 312.88543 44.71434 316.748346 
L 44.71434 364.004686 
Q 44.71434 367.867603 49.23414 367.867603 
z
" clip-path="url(#p4b19a5cfe7)" style="fill: #fff7ed; stroke: #ea580c; stroke-width: 1.6; stroke-linejoin: miter"/>
   </g>
   <g id="patch_20">
    <path d="M 194.0184 80.595406 
L 212.0976 80.595406 
L 212.0976 70.938116 
L 194.0184 70.938116 
z
" clip-path="url(#p4b19a5cfe7)" style="fill: #ffffff; stroke: #2563eb; stroke-linejoin: miter"/>
   </g>
   <g id="text_4">
    <!-- Android -->
    <g style="fill: #1f2933" transform="translate(121.529625 87.152864) scale(0.11 -0.11)">
     <defs>
      <path id="DejaVuSans-24" d="M 2188 4044 
L 1331 1722 
L 3047 1722 
L 2188 4044 
z
M 1831 4666 
L 2547 4666 
L 4325 0 
L 3669 0 
L 3244 1197 
L 1141 1197 
L 716 0 
L 50 0 
L 1831 4666 
z
" transform="scale(0.015625)"/>
      <path id="DejaVuSans-51" d="M 3513 2113 
L 3513 0 
L 2938 0 
L 2938 2094 
Q 2938 2591 2744 2837 
Q 2550 3084 2163 3084 
Q 1697 3084 1428 2787 
Q 1159 2491 1159 1978 
L 1159 0 
L 581 0 
L 581 3500 
L 1159 3500 
L 1159 2956 
Q 1366 3272 1645 3428 
Q 1925 3584 2291 3584 
Q 2894 3584 3203 3211 
Q 3513 2838 3513 2113 
z
" transform="scale(0.015625)"/>
      <path id="DejaVuSans-47" d="M 2906 2969 
L 2906 4863 
L 3481 4863 
L 3481 0 
L 2906 0 
L 2906 525 
Q 2725 213 2448 61 
Q 2172 -91 1784 -91 
Q 1150 -91 751 415 
Q 353 922 353 1747 
Q 353 2572 751 3078 
Q 1150 3584 1784 3584 
Q 2172 3584 2448 3432 
Q 2725 3281 2906 2969 
z
M 947 1747 
Q 947 1113 1208 752 
Q 1469 391 1925 391 
Q 2381 391 2643 752 
Q 2906 1113 2906 1747 
Q 2906 2381 2643 2742 
Q 2381 3103 1925 3103 
Q 1469 3103 1208 2742 
Q 947 2381 947 1747 
z
" transform="scale(0.015625)"/>
      <path id="DejaVuSans-55" d="M 2631 2963 
Q 2534 3019 2420 3045 
Q 2306 3072 2169 3072 
Q 1681 3072 1420 2755 
Q 1159 2438 1159 1844 
L 1159 0 
L 581 0 
L 581 3500 
L 1159 3500 
L 1159 2956 
Q 1341 3275 1631 3429 
Q 1922 3584 2338 3584 
Q 2397 3584 2469 3576 
Q 2541 3569 2628 3553 
L 2631 2963 
z
" transform="scale(0.015625)"/>
      <path id="DejaVuSans-52" d="M 1959 3097 
Q 1497 3097 1228 2736 
Q 959 2375 959 1747 
Q 959 1119 1226 758 
Q 1494 397 1959 397 
Q 2419 397 2687 759 
Q 2956 1122 2956 1747 
Q 2956 2369 2687 2733 
Q 2419 3097 1959 3097 
z
M 1959 3584 
Q 2709 3584 3137 3096 
Q 3566 2609 3566 1747 
Q 3566 888 3137 398 
Q 2709 -91 1959 -91 
Q 1206 -91 779 398 
Q 353 888 353 1747 
Q 353 2609 779 3096 
Q 1206 3584 1959 3584 
z
" transform="scale(0.015625)"/>
      <path id="DejaVuSans-4c" d="M 603 3500 
L 1178 3500 
L 1178 0 
L 603 0 
L 603 3500 
z
M 603 4863 
L 1178 4863 
L 1178 4134 
L 603 4134 
L 603 4863 
z
" transform="scale(0.015625)"/>
     </defs>
     <use xlink:href="#DejaVuSans-24"/>
     <use xlink:href="#DejaVuSans-51" transform="translate(68.40625 0)"/>
     <use xlink:href="#DejaVuSans-47" transform="translate(131.78125 0)"/>
     <use xlink:href="#DejaVuSans-55" transform="translate(195.265625 0)"/>
     <use xlink:href="#DejaVuSans-52" transform="translate(234.171875 0)"/>
     <use xlink:href="#DejaVuSans-4c" transform="translate(295.359375 0)"/>
     <use xlink:href="#DejaVuSans-47" transform="translate(323.140625 0)"/>
    </g>
    <!-- (Kotlin, MVVM) -->
    <g style="fill: #1f2933" transform="translate(102.595016 100.355872) scale(0.11 -0.11)">
     <defs>
      <path id="DejaVuSans-b" d="M 1984 4856 
Q 1566 4138 1362 3434 
Q 1159 2731 1159 2009 
Q 1159 1288 1364 580 
Q 1569 -128 1984 -844 
L 1484 -844 
Q 1016 -109 783 600 
Q 550 1309 550 2009 
Q 550 2706 781 3412 
Q 1013 4119 1484 4856 
L 1984 4856 
z
" transform="scale(0.015625)"/>
      <path id="DejaVuSans-2e" d="M 628 4666 
L 1259 4666 
L 1259 2694 
L 3353 4666 
L 4166 4666 
L 1850 2491 
L 4331 0 
L 3500 0 
L 1259 2247 
L 1259 0 
L 628 0 
L 628 4666 
z
" transform="scale(0.015625)"/>
      <path id="DejaVuSans-57" d="M 1172 4494 
L 1172 3500 
L 2356 3500 
L 2356 3053 
L 1172 3053 
L 1172 1153 
Q 1172 725 1289 603 
Q 1406 481 1766 481 
L 2356 481 
L 2356 0 
L 1766 0 
Q 1100 0 847 248 
Q 594 497 594 1153 
L 594 3053 
L 172 3053 
L 172 3500 
L 594 3500 
L 594 4494 
L 1172 4494 
z
" transform="scale(0.015625)"/>
      <path id="DejaVuSans-4f" d="M 603 4863 
L 1178 4863 
L 1178 0 
L 603 0 
L 603 4863 
z
" transform="scale(0.015625)"/>
      <path id="DejaVuSans-f" d="M 750 794 
L 1409 794 
L 1409 256 
L 897 -744 
L 494 -744 
L 750 256 
L 750 794 
z
" transform="scale(0.015625)"/>
      <path id="DejaVuSans-3" transform="scale(0.015625)"/>
      <path id="DejaVuSans-30" d="M 628 4666 
L 1569 4666 
L 2759 1491 
L 3956 4666 
L 4897 4666 
L 4897 0 
L 4281 0 
L 4281 4097 
L 3078 897 
L 2444 897 
L 1241 4097 
L 1241 0 
L 628 0 
L 628 4666 
z
" transform="scale(0.015625)"/>
      <path id="DejaVuSans-39" d="M 1831 0 
L 50 4666 
L 709 4666 
L 2188 738 
L 3669 4666 
L 4325 4666 
L 2547 0 
L 1831 0 
z
" transform="scale(0.015625)"/>
      <path id="DejaVuSans-c" d="M 513 4856 
L 1013 4856 
Q 1481 4119 1714 3412 
Q 1947 2706 1947 2009 
Q 1947 1309 1714 600 
Q 1481 -109 1013 -844 
L 513 -844 
Q 928 -128 1133 580 
Q 1338 1288 1338 2009 
Q 1338 2731 1133 3434 
Q 928 4138 513 4856 
z
" transform="scale(0.015625)"/>
     </defs>
     <use xlink:href="#DejaVuSans-b"/>
     <use xlink:href="#DejaVuSans-2e" transform="translate(39.015625 0)"/>
     <use xlink:href="#DejaVuSans-52" transform="translate(99.609375 0)"/>
     <use xlink:href="#DejaVuSans-57" transform="translate(160.796875 0)"/>
     <use xlink:href="#DejaVuSans-4f" transform="translate(200 0)"/>
     <use xlink:href="#DejaVuSans-4c" transform="translate(227.78125 0)"/>
     <use xlink:href="#DejaVuSans-51" transform="translate(255.5625 0)"/>
     <use xlink:href="#DejaVuSans-f" transform="translate(318.9375 0)"/>
     <use xlink:href="#DejaVuSans-3" transform="translate(350.71875 0)"/>
     <use xlink:href="#DejaVuSans-30" transform="translate(382.5 0)"/>
     <use xlink:href="#DejaVuSans-39" transform="translate(468.78125 0)"/>
     <use xlink:href="#DejaVuSans-39" transform="translate(537.1875 0)"/>
     <use xlink:href="#DejaVuSans-30" transform="translate(605.59375 0)"/>
     <use xlink:href="#DejaVuSans-c" transform="translate(691.875 0)"/>
    </g>
   </g>
   <g id="patch_21">
    <path d="M 194.0184 157.853729 
L 212.0976 157.853729 
L 212.0976 148.196439 
L 194.0184 148.196439 
z
" clip-path="url(#p4b19a5cfe7)" style="fill: #ffffff; stroke: #2563eb; stroke-linejoin: miter"/>
   </g>
   <g id="text_5">
    <!-- Webes felület -->
    <g style="fill: #1f2933" transform="translate(105.402594 164.411616) scale(0.11 -0.11)">
     <defs>
      <path id="DejaVuSans-3a" d="M 213 4666 
L 850 4666 
L 1831 722 
L 2809 4666 
L 3519 4666 
L 4500 722 
L 5478 4666 
L 6119 4666 
L 4947 0 
L 4153 0 
L 3169 4050 
L 2175 0 
L 1381 0 
L 213 4666 
z
" transform="scale(0.015625)"/>
      <path id="DejaVuSans-48" d="M 3597 1894 
L 3597 1613 
L 953 1613 
Q 991 1019 1311 708 
Q 1631 397 2203 397 
Q 2534 397 2845 478 
Q 3156 559 3463 722 
L 3463 178 
Q 3153 47 2828 -22 
Q 2503 -91 2169 -91 
Q 1331 -91 842 396 
Q 353 884 353 1716 
Q 353 2575 817 3079 
Q 1281 3584 2069 3584 
Q 2775 3584 3186 3129 
Q 3597 2675 3597 1894 
z
M 3022 2063 
Q 3016 2534 2758 2815 
Q 2500 3097 2075 3097 
Q 1594 3097 1305 2825 
Q 1016 2553 972 2059 
L 3022 2063 
z
" transform="scale(0.015625)"/>
      <path id="DejaVuSans-45" d="M 3116 1747 
Q 3116 2381 2855 2742 
Q 2594 3103 2138 3103 
Q 1681 3103 1420 2742 
Q 1159 2381 1159 1747 
Q 1159 1113 1420 752 
Q 1681 391 2138 391 
Q 2594 391 2855 752 
Q 3116 1113 3116 1747 
z
M 1159 2969 
Q 1341 3281 1617 3432 
Q 1894 3584 2278 3584 
Q 2916 3584 3314 3078 
Q 3713 2572 3713 1747 
Q 3713 922 3314 415 
Q 2916 -91 2278 -91 
Q 1894 -91 1617 61 
Q 1341 213 1159 525 
L 1159 0 
L 581 0 
L 581 4863 
L 1159 4863 
L 1159 2969 
z
" transform="scale(0.015625)"/>
      <path id="DejaVuSans-56" d="M 2834 3397 
L 2834 2853 
Q 2591 2978 2328 3040 
Q 2066 3103 1784 3103 
Q 1356 3103 1142 2972 
Q 928 2841 928 2578 
Q 928 2378 1081 2264 
Q 1234 2150 1697 2047 
L 1894 2003 
Q 2506 1872 2764 1633 
Q 3022 1394 3022 966 
Q 3022 478 2636 193 
Q 2250 -91 1575 -91 
Q 1294 -91 989 -36 
Q 684 19 347 128 
L 347 722 
Q 666 556 975 473 
Q 1284 391 1588 391 
Q 1994 391 2212 530 
Q 2431 669 2431 922 
Q 2431 1156 2273 1281 
Q 2116 1406 1581 1522 
L 1381 1569 
Q 847 1681 609 1914 
Q 372 2147 372 2553 
Q 372 3047 722 3315 
Q 1072 3584 1716 3584 
Q 2034 3584 2315 3537 
Q 2597 3491 2834 3397 
z
" transform="scale(0.015625)"/>
      <path id="DejaVuSans-49" d="M 2375 4863 
L 2375 4384 
L 1825 4384 
Q 1516 4384 1395 4259 
Q 1275 4134 1275 3809 
L 1275 3500 
L 2222 3500 
L 2222 3053 
L 1275 3053 
L 1275 0 
L 697 0 
L 697 3053 
L 147 3053 
L 147 3500 
L 697 3500 
L 697 3744 
Q 697 4328 969 4595 
Q 1241 4863 1831 4863 
L 2375 4863 
z
" transform="scale(0.015625)"/>
      <path id="DejaVuSans-be" d="M 544 1381 
L 544 3500 
L 1119 3500 
L 1119 1403 
Q 1119 906 1312 657 
Q 1506 409 1894 409 
Q 2359 409 2629 706 
Q 2900 1003 2900 1516 
L 2900 3500 
L 3475 3500 
L 3475 0 
L 2900 0 
L 2900 538 
Q 2691 219 2414 64 
Q 2138 -91 1772 -91 
Q 1169 -91 856 284 
Q 544 659 544 1381 
z
M 1991 3584 
L 1991 3584 
z
M 2278 4850 
L 2912 4850 
L 2912 4219 
L 2278 4219 
L 2278 4850 
z
M 1056 4850 
L 1690 4850 
L 1690 4219 
L 1056 4219 
L 1056 4850 
z
" transform="scale(0.015625)"/>
     </defs>
     <use xlink:href="#DejaVuSans-3a"/>
     <use xlink:href="#DejaVuSans-48" transform="translate(93.015625 0)"/>
     <use xlink:href="#DejaVuSans-45" transform="translate(154.546875 0)"/>
     <use xlink:href="#DejaVuSans-48" transform="translate(218.03125 0)"/>
     <use xlink:href="#DejaVuSans-56" transform="translate(279.5625 0)"/>
     <use xlink:href="#DejaVuSans-3" transform="translate(331.65625 0)"/>
     <use xlink:href="#DejaVuSans-49" transform="translate(363.4375 0)"/>
     <use xlink:href="#DejaVuSans-48" transform="translate(398.640625 0)"/>
     <use xlink:href="#DejaVuSans-4f" transform="translate(460.171875 0)"/>
     <use xlink:href="#DejaVuSans-be" transform="translate(487.953125 0)"/>
     <use xlink:href="#DejaVuSans-4f" transform="translate(551.328125 0)"/>
     <use xlink:href="#DejaVuSans-48" transform="translate(579.109375 0)"/>
     <use xlink:href="#DejaVuSans-57" transform="translate(640.640625 0)"/>
    </g>
    <!-- (HTML / JS) -->
    <g style="fill: #1f2933" transform="translate(112.733922 177.613764) scale(0.11 -0.11)">
     <defs>
      <path id="DejaVuSans-2b" d="M 628 4666 
L 1259 4666 
L 1259 2753 
L 3553 2753 
L 3553 4666 
L 4184 4666 
L 4184 0 
L 3553 0 
L 3553 2222 
L 1259 2222 
L 1259 0 
L 628 0 
L 628 4666 
z
" transform="scale(0.015625)"/>
      <path id="DejaVuSans-37" d="M -19 4666 
L 3928 4666 
L 3928 4134 
L 2272 4134 
L 2272 0 
L 1638 0 
L 1638 4134 
L -19 4134 
L -19 4666 
z
" transform="scale(0.015625)"/>
      <path id="DejaVuSans-2f" d="M 628 4666 
L 1259 4666 
L 1259 531 
L 3531 531 
L 3531 0 
L 628 0 
L 628 4666 
z
" transform="scale(0.015625)"/>
      <path id="DejaVuSans-12" d="M 1625 4666 
L 2156 4666 
L 531 -594 
L 0 -594 
L 1625 4666 
z
" transform="scale(0.015625)"/>
      <path id="DejaVuSans-2d" d="M 628 4666 
L 1259 4666 
L 1259 325 
Q 1259 -519 939 -900 
Q 619 -1281 -91 -1281 
L -331 -1281 
L -331 -750 
L -134 -750 
Q 284 -750 456 -515 
Q 628 -281 628 325 
L 628 4666 
z
" transform="scale(0.015625)"/>
      <path id="DejaVuSans-36" d="M 3425 4513 
L 3425 3897 
Q 3066 4069 2747 4153 
Q 2428 4238 2131 4238 
Q 1616 4238 1336 4038 
Q 1056 3838 1056 3469 
Q 1056 3159 1242 3001 
Q 1428 2844 1947 2747 
L 2328 2669 
Q 3034 2534 3370 2195 
Q 3706 1856 3706 1288 
Q 3706 609 3251 259 
Q 2797 -91 1919 -91 
Q 1588 -91 1214 -16 
Q 841 59 441 206 
L 441 856 
Q 825 641 1194 531 
Q 1563 422 1919 422 
Q 2459 422 2753 634 
Q 3047 847 3047 1241 
Q 3047 1584 2836 1778 
Q 2625 1972 2144 2069 
L 1759 2144 
Q 1053 2284 737 2584 
Q 422 2884 422 3419 
Q 422 4038 858 4394 
Q 1294 4750 2059 4750 
Q 2388 4750 2728 4690 
Q 3069 4631 3425 4513 
z
" transform="scale(0.015625)"/>
     </defs>
     <use xlink:href="#DejaVuSans-b"/>
     <use xlink:href="#DejaVuSans-2b" transform="translate(39.015625 0)"/>
     <use xlink:href="#DejaVuSans-37" transform="translate(114.21875 0)"/>
     <use xlink:href="#DejaVuSans-30" transform="translate(175.296875 0)"/>
     <use xlink:href="#DejaVuSans-2f" transform="translate(261.578125 0)"/>
     <use xlink:href="#DejaVuSans-3" transform="translate(317.296875 0)"/>
     <use xlink:href="#DejaVuSans-12" transform="translate(349.078125 0)"/>
     <use xlink:href="#DejaVuSans-3" transform="translate(382.765625 0)"/>
     <use xlink:href="#DejaVuSans-2d" transform="translate(414.546875 0)"/>
     <use xlink:href="#DejaVuSans-36" transform="translate(444.046875 0)"/>
     <use xlink:href="#DejaVuSans-c" transform="translate(507.53125 0)"/>
    </g>
   </g>
   <g id="patch_22">
    <path d="M 442.6074 80.595406 
L 460.6866 80.595406 
L 460.6866 70.938116 
L 442.6074 70.938116 
z
" clip-path="url(#p4b19a5cfe7)" style="fill: #ffffff; stroke: #2563eb; stroke-linejoin: miter"/>
   </g>
   <g id="text_6">
    <!-- Flask -->
    <g style="fill: #1f2933" transform="translate(384.804203 87.152864) scale(0.11 -0.11)">
     <defs>
      <path id="DejaVuSans-29" d="M 628 4666 
L 3309 4666 
L 3309 4134 
L 1259 4134 
L 1259 2759 
L 3109 2759 
L 3109 2228 
L 1259 2228 
L 1259 0 
L 628 0 
L 628 4666 
z
" transform="scale(0.015625)"/>
      <path id="DejaVuSans-44" d="M 2194 1759 
Q 1497 1759 1228 1600 
Q 959 1441 959 1056 
Q 959 750 1161 570 
Q 1363 391 1709 391 
Q 2188 391 2477 730 
Q 2766 1069 2766 1631 
L 2766 1759 
L 2194 1759 
z
M 3341 1997 
L 3341 0 
L 2766 0 
L 2766 531 
Q 2569 213 2275 61 
Q 1981 -91 1556 -91 
Q 1019 -91 701 211 
Q 384 513 384 1019 
Q 384 1609 779 1909 
Q 1175 2209 1959 2209 
L 2766 2209 
L 2766 2266 
Q 2766 2663 2505 2880 
Q 2244 3097 1772 3097 
Q 1472 3097 1187 3025 
Q 903 2953 641 2809 
L 641 3341 
Q 956 3463 1253 3523 
Q 1550 3584 1831 3584 
Q 2591 3584 2966 3190 
Q 3341 2797 3341 1997 
z
" transform="scale(0.015625)"/>
      <path id="DejaVuSans-4e" d="M 581 4863 
L 1159 4863 
L 1159 1991 
L 2875 3500 
L 3609 3500 
L 1753 1863 
L 3688 0 
L 2938 0 
L 1159 1709 
L 1159 0 
L 581 0 
L 581 4863 
z
" transform="scale(0.015625)"/>
     </defs>
     <use xlink:href="#DejaVuSans-29"/>
     <use xlink:href="#DejaVuSans-4f" transform="translate(57.515625 0)"/>
     <use xlink:href="#DejaVuSans-44" transform="translate(85.296875 0)"/>
     <use xlink:href="#DejaVuSans-56" transform="translate(146.578125 0)"/>
     <use xlink:href="#DejaVuSans-4e" transform="translate(198.671875 0)"/>
    </g>
    <!-- backend -->
    <g style="fill: #1f2933" transform="translate(375.679359 100.355872) scale(0.11 -0.11)">
     <defs>
      <path id="DejaVuSans-46" d="M 3122 3366 
L 3122 2828 
Q 2878 2963 2633 3030 
Q 2388 3097 2138 3097 
Q 1578 3097 1268 2742 
Q 959 2388 959 1747 
Q 959 1106 1268 751 
Q 1578 397 2138 397 
Q 2388 397 2633 464 
Q 2878 531 3122 666 
L 3122 134 
Q 2881 22 2623 -34 
Q 2366 -91 2075 -91 
Q 1284 -91 818 406 
Q 353 903 353 1747 
Q 353 2603 823 3093 
Q 1294 3584 2113 3584 
Q 2378 3584 2631 3529 
Q 2884 3475 3122 3366 
z
" transform="scale(0.015625)"/>
     </defs>
     <use xlink:href="#DejaVuSans-45"/>
     <use xlink:href="#DejaVuSans-44" transform="translate(63.484375 0)"/>
     <use xlink:href="#DejaVuSans-46" transform="translate(124.765625 0)"/>
     <use xlink:href="#DejaVuSans-4e" transform="translate(179.75 0)"/>
     <use xlink:href="#DejaVuSans-48" transform="translate(234.09375 0)"/>
     <use xlink:href="#DejaVuSans-51" transform="translate(295.625 0)"/>
     <use xlink:href="#DejaVuSans-47" transform="translate(359 0)"/>
    </g>
   </g>
   <g id="patch_23">
    <path d="M 442.6074 157.853729 
L 460.6866 157.853729 
L 460.6866 148.196439 
L 442.6074 148.196439 
z
" clip-path="url(#p4b19a5cfe7)" style="fill: #ffffff; stroke: #2563eb; stroke-linejoin: miter"/>
   </g>
   <g id="text_7">
    <!-- FastAPI -->
    <g style="fill: #1f2933" transform="translate(379.164125 164.410757) scale(0.11 -0.11)">
     <defs>
      <path id="DejaVuSans-33" d="M 1259 4147 
L 1259 2394 
L 2053 2394 
Q 2494 2394 2734 2622 
Q 2975 2850 2975 3272 
Q 2975 3691 2734 3919 
Q 2494 4147 2053 4147 
L 1259 4147 
z
M 628 4666 
L 2053 4666 
Q 2838 4666 3239 4311 
Q 3641 3956 3641 3272 
Q 3641 2581 3239 2228 
Q 2838 1875 2053 1875 
L 1259 1875 
L 1259 0 
L 628 0 
L 628 4666 
z
" transform="scale(0.015625)"/>
      <path id="DejaVuSans-2c" d="M 628 4666 
L 1259 4666 
L 1259 0 
L 628 0 
L 628 4666 
z
" transform="scale(0.015625)"/>
     </defs>
     <use xlink:href="#DejaVuSans-29"/>
     <use xlink:href="#DejaVuSans-44" transform="translate(48.34375 0)"/>
     <use xlink:href="#DejaVuSans-56" transform="translate(109.625 0)"/>
     <use xlink:href="#DejaVuSans-57" transform="translate(161.71875 0)"/>
     <use xlink:href="#DejaVuSans-24" transform="translate(200.921875 0)"/>
     <use xlink:href="#DejaVuSans-33" transform="translate(269.328125 0)"/>
     <use xlink:href="#DejaVuSans-2c" transform="translate(329.625 0)"/>
    </g>
    <!-- backend -->
    <g style="fill: #1f2933" transform="translate(375.679359 177.613764) scale(0.11 -0.11)">
     <use xlink:href="#DejaVuSans-45"/>
     <use xlink:href="#DejaVuSans-44" transform="translate(63.484375 0)"/>
     <use xlink:href="#DejaVuSans-46" transform="translate(124.765625 0)"/>
     <use xlink:href="#DejaVuSans-4e" transform="translate(179.75 0)"/>
     <use xlink:href="#DejaVuSans-48" transform="translate(234.09375 0)"/>
     <use xlink:href="#DejaVuSans-51" transform="translate(295.625 0)"/>
     <use xlink:href="#DejaVuSans-47" transform="translate(359 0)"/>
    </g>
   </g>
   <g id="patch_24">
    <path d="M 570.6684 112.786374 
L 588.7476 112.786374 
L 588.7476 103.129084 
L 570.6684 103.129084 
z
" clip-path="url(#p4b19a5cfe7)" style="fill: #ffffff; stroke: #2563eb; stroke-linejoin: miter"/>
   </g>
   <g id="text_8">
    <!-- MCP- -->
    <g style="fill: #1f2933" transform="translate(533.848578 122.562928) scale(0.11 -0.11)">
     <defs>
      <path id="DejaVuSans-Bold-30" d="M 588 4666 
L 2119 4666 
L 3181 2169 
L 4250 4666 
L 5778 4666 
L 5778 0 
L 4641 0 
L 4641 3413 
L 3566 897 
L 2803 897 
L 1728 3413 
L 1728 0 
L 588 0 
L 588 4666 
z
" transform="scale(0.015625)"/>
     </defs>
     <use xlink:href="#DejaVuSans-Bold-30"/>
     <use xlink:href="#DejaVuSans-Bold-26" transform="translate(99.515625 0)"/>
     <use xlink:href="#DejaVuSans-Bold-33" transform="translate(172.90625 0)"/>
     <use xlink:href="#DejaVuSans-Bold-10" transform="translate(244.453125 0)"/>
    </g>
    <!-- szerver -->
    <g style="fill: #1f2933" transform="translate(526.630688 135.765077) scale(0.11 -0.11)">
     <use xlink:href="#DejaVuSans-Bold-56"/>
     <use xlink:href="#DejaVuSans-Bold-5d" transform="translate(59.515625 0)"/>
     <use xlink:href="#DejaVuSans-Bold-48" transform="translate(117.71875 0)"/>
     <use xlink:href="#DejaVuSans-Bold-55" transform="translate(185.546875 0)"/>
     <use xlink:href="#DejaVuSans-Bold-59" transform="translate(234.859375 0)"/>
     <use xlink:href="#DejaVuSans-Bold-48" transform="translate(300.046875 0)"/>
     <use xlink:href="#DejaVuSans-Bold-55" transform="translate(367.875 0)"/>
    </g>
   </g>
   <g id="patch_25">
    <path d="M 728.8614 116.005471 
L 746.9406 116.005471 
L 746.9406 106.348181 
L 728.8614 106.348181 
z
" clip-path="url(#p4b19a5cfe7)" style="fill: #ffffff; stroke: #7c3aed; stroke-linejoin: miter"/>
   </g>
   <g id="text_9">
    <!-- ViT modell -->
    <g style="fill: #1f2933" transform="translate(669.060023 129.03453) scale(0.105 -0.105)">
     <defs>
      <path id="DejaVuSans-Bold-39" d="M 31 4666 
L 1241 4666 
L 2478 1222 
L 3713 4666 
L 4922 4666 
L 3194 0 
L 1759 0 
L 31 4666 
z
" transform="scale(0.015625)"/>
      <path id="DejaVuSans-Bold-4c" d="M 538 3500 
L 1656 3500 
L 1656 0 
L 538 0 
L 538 3500 
z
M 538 4863 
L 1656 4863 
L 1656 3950 
L 538 3950 
L 538 4863 
z
" transform="scale(0.015625)"/>
      <path id="DejaVuSans-Bold-37" d="M 31 4666 
L 4331 4666 
L 4331 3756 
L 2784 3756 
L 2784 0 
L 1581 0 
L 1581 3756 
L 31 3756 
L 31 4666 
z
" transform="scale(0.015625)"/>
      <path id="DejaVuSans-Bold-3" transform="scale(0.015625)"/>
      <path id="DejaVuSans-Bold-50" d="M 3781 2919 
Q 3994 3244 4286 3414 
Q 4578 3584 4928 3584 
Q 5531 3584 5847 3212 
Q 6163 2841 6163 2131 
L 6163 0 
L 5038 0 
L 5038 1825 
Q 5041 1866 5042 1909 
Q 5044 1953 5044 2034 
Q 5044 2406 4934 2573 
Q 4825 2741 4581 2741 
Q 4263 2741 4089 2478 
Q 3916 2216 3909 1719 
L 3909 0 
L 2784 0 
L 2784 1825 
Q 2784 2406 2684 2573 
Q 2584 2741 2328 2741 
Q 2006 2741 1831 2477 
Q 1656 2213 1656 1722 
L 1656 0 
L 531 0 
L 531 3500 
L 1656 3500 
L 1656 2988 
Q 1863 3284 2130 3434 
Q 2397 3584 2719 3584 
Q 3081 3584 3359 3409 
Q 3638 3234 3781 2919 
z
" transform="scale(0.015625)"/>
      <path id="DejaVuSans-Bold-52" d="M 2203 2784 
Q 1831 2784 1636 2517 
Q 1441 2250 1441 1747 
Q 1441 1244 1636 976 
Q 1831 709 2203 709 
Q 2569 709 2762 976 
Q 2956 1244 2956 1747 
Q 2956 2250 2762 2517 
Q 2569 2784 2203 2784 
z
M 2203 3584 
Q 3106 3584 3614 3096 
Q 4122 2609 4122 1747 
Q 4122 884 3614 396 
Q 3106 -91 2203 -91 
Q 1297 -91 786 396 
Q 275 884 275 1747 
Q 275 2609 786 3096 
Q 1297 3584 2203 3584 
z
" transform="scale(0.015625)"/>
      <path id="DejaVuSans-Bold-47" d="M 2919 2988 
L 2919 4863 
L 4044 4863 
L 4044 0 
L 2919 0 
L 2919 506 
Q 2688 197 2409 53 
Q 2131 -91 1766 -91 
Q 1119 -91 703 423 
Q 288 938 288 1747 
Q 288 2556 703 3070 
Q 1119 3584 1766 3584 
Q 2128 3584 2408 3439 
Q 2688 3294 2919 2988 
z
M 2181 722 
Q 2541 722 2730 984 
Q 2919 1247 2919 1747 
Q 2919 2247 2730 2509 
Q 2541 2772 2181 2772 
Q 1825 2772 1636 2509 
Q 1447 2247 1447 1747 
Q 1447 1247 1636 984 
Q 1825 722 2181 722 
z
" transform="scale(0.015625)"/>
      <path id="DejaVuSans-Bold-4f" d="M 538 4863 
L 1656 4863 
L 1656 0 
L 538 0 
L 538 4863 
z
" transform="scale(0.015625)"/>
     </defs>
     <use xlink:href="#DejaVuSans-Bold-39"/>
     <use xlink:href="#DejaVuSans-Bold-4c" transform="translate(75.640625 0)"/>
     <use xlink:href="#DejaVuSans-Bold-37" transform="translate(109.921875 0)"/>
     <use xlink:href="#DejaVuSans-Bold-3" transform="translate(178.140625 0)"/>
     <use xlink:href="#DejaVuSans-Bold-50" transform="translate(212.953125 0)"/>
     <use xlink:href="#DejaVuSans-Bold-52" transform="translate(317.15625 0)"/>
     <use xlink:href="#DejaVuSans-Bold-47" transform="translate(385.859375 0)"/>
     <use xlink:href="#DejaVuSans-Bold-48" transform="translate(457.4375 0)"/>
     <use xlink:href="#DejaVuSans-Bold-4f" transform="translate(525.265625 0)"/>
     <use xlink:href="#DejaVuSans-Bold-4f" transform="translate(559.546875 0)"/>
    </g>
   </g>
   <g id="patch_26">
    <path d="M 721.3284 325.246761 
L 739.4076 325.246761 
L 739.4076 315.589471 
L 721.3284 315.589471 
z
" clip-path="url(#p4b19a5cfe7)" style="fill: #ffffff; stroke: #ea580c; stroke-linejoin: miter"/>
   </g>
   <g id="text_10">
    <!-- Gemini 2.5 Flash -->
    <g style="fill: #1f2933" transform="translate(633.537 338.27582) scale(0.105 -0.105)">
     <defs>
      <path id="DejaVuSans-2a" d="M 3809 666 
L 3809 1919 
L 2778 1919 
L 2778 2438 
L 4434 2438 
L 4434 434 
Q 4069 175 3628 42 
Q 3188 -91 2688 -91 
Q 1594 -91 976 548 
Q 359 1188 359 2328 
Q 359 3472 976 4111 
Q 1594 4750 2688 4750 
Q 3144 4750 3555 4637 
Q 3966 4525 4313 4306 
L 4313 3634 
Q 3963 3931 3569 4081 
Q 3175 4231 2741 4231 
Q 1884 4231 1454 3753 
Q 1025 3275 1025 2328 
Q 1025 1384 1454 906 
Q 1884 428 2741 428 
Q 3075 428 3337 486 
Q 3600 544 3809 666 
z
" transform="scale(0.015625)"/>
      <path id="DejaVuSans-50" d="M 3328 2828 
Q 3544 3216 3844 3400 
Q 4144 3584 4550 3584 
Q 5097 3584 5394 3201 
Q 5691 2819 5691 2113 
L 5691 0 
L 5113 0 
L 5113 2094 
Q 5113 2597 4934 2840 
Q 4756 3084 4391 3084 
Q 3944 3084 3684 2787 
Q 3425 2491 3425 1978 
L 3425 0 
L 2847 0 
L 2847 2094 
Q 2847 2600 2669 2842 
Q 2491 3084 2119 3084 
Q 1678 3084 1418 2786 
Q 1159 2488 1159 1978 
L 1159 0 
L 581 0 
L 581 3500 
L 1159 3500 
L 1159 2956 
Q 1356 3278 1631 3431 
Q 1906 3584 2284 3584 
Q 2666 3584 2933 3390 
Q 3200 3197 3328 2828 
z
" transform="scale(0.015625)"/>
      <path id="DejaVuSans-15" d="M 1228 531 
L 3431 531 
L 3431 0 
L 469 0 
L 469 531 
Q 828 903 1448 1529 
Q 2069 2156 2228 2338 
Q 2531 2678 2651 2914 
Q 2772 3150 2772 3378 
Q 2772 3750 2511 3984 
Q 2250 4219 1831 4219 
Q 1534 4219 1204 4116 
Q 875 4013 500 3803 
L 500 4441 
Q 881 4594 1212 4672 
Q 1544 4750 1819 4750 
Q 2544 4750 2975 4387 
Q 3406 4025 3406 3419 
Q 3406 3131 3298 2873 
Q 3191 2616 2906 2266 
Q 2828 2175 2409 1742 
Q 1991 1309 1228 531 
z
" transform="scale(0.015625)"/>
      <path id="DejaVuSans-11" d="M 684 794 
L 1344 794 
L 1344 0 
L 684 0 
L 684 794 
z
" transform="scale(0.015625)"/>
      <path id="DejaVuSans-18" d="M 691 4666 
L 3169 4666 
L 3169 4134 
L 1269 4134 
L 1269 2991 
Q 1406 3038 1543 3061 
Q 1681 3084 1819 3084 
Q 2600 3084 3056 2656 
Q 3513 2228 3513 1497 
Q 3513 744 3044 326 
Q 2575 -91 1722 -91 
Q 1428 -91 1123 -41 
Q 819 9 494 109 
L 494 744 
Q 775 591 1075 516 
Q 1375 441 1709 441 
Q 2250 441 2565 725 
Q 2881 1009 2881 1497 
Q 2881 1984 2565 2268 
Q 2250 2553 1709 2553 
Q 1456 2553 1204 2497 
Q 953 2441 691 2322 
L 691 4666 
z
" transform="scale(0.015625)"/>
      <path id="DejaVuSans-4b" d="M 3513 2113 
L 3513 0 
L 2938 0 
L 2938 2094 
Q 2938 2591 2744 2837 
Q 2550 3084 2163 3084 
Q 1697 3084 1428 2787 
Q 1159 2491 1159 1978 
L 1159 0 
L 581 0 
L 581 4863 
L 1159 4863 
L 1159 2956 
Q 1366 3272 1645 3428 
Q 1925 3584 2291 3584 
Q 2894 3584 3203 3211 
Q 3513 2838 3513 2113 
z
" transform="scale(0.015625)"/>
     </defs>
     <use xlink:href="#DejaVuSans-2a"/>
     <use xlink:href="#DejaVuSans-48" transform="translate(77.484375 0)"/>
     <use xlink:href="#DejaVuSans-50" transform="translate(139.015625 0)"/>
     <use xlink:href="#DejaVuSans-4c" transform="translate(236.421875 0)"/>
     <use xlink:href="#DejaVuSans-51" transform="translate(264.203125 0)"/>
     <use xlink:href="#DejaVuSans-4c" transform="translate(327.578125 0)"/>
     <use xlink:href="#DejaVuSans-3" transform="translate(355.359375 0)"/>
     <use xlink:href="#DejaVuSans-15" transform="translate(387.140625 0)"/>
     <use xlink:href="#DejaVuSans-11" transform="translate(450.765625 0)"/>
     <use xlink:href="#DejaVuSans-18" transform="translate(482.546875 0)"/>
     <use xlink:href="#DejaVuSans-3" transform="translate(546.171875 0)"/>
     <use xlink:href="#DejaVuSans-29" transform="translate(577.953125 0)"/>
     <use xlink:href="#DejaVuSans-4f" transform="translate(635.46875 0)"/>
     <use xlink:href="#DejaVuSans-44" transform="translate(663.25 0)"/>
     <use xlink:href="#DejaVuSans-56" transform="translate(724.53125 0)"/>
     <use xlink:href="#DejaVuSans-4b" transform="translate(776.625 0)"/>
    </g>
   </g>
   <g id="patch_27">
    <path d="M 420.0084 328.465858 
L 438.0876 328.465858 
L 438.0876 318.808568 
L 420.0084 318.808568 
z
" clip-path="url(#p4b19a5cfe7)" style="fill: #ffffff; stroke: #ea580c; stroke-linejoin: miter"/>
   </g>
   <g id="text_11">
    <!-- Firebase  —  Auth · Firestore · Storage -->
    <g style="fill: #1f2933" transform="translate(130.785984 343.104465) scale(0.105 -0.105)">
     <defs>
      <path id="DejaVuSans-Bold-29" d="M 588 4666 
L 3834 4666 
L 3834 3756 
L 1791 3756 
L 1791 2888 
L 3713 2888 
L 3713 1978 
L 1791 1978 
L 1791 0 
L 588 0 
L 588 4666 
z
" transform="scale(0.015625)"/>
      <path id="DejaVuSans-Bold-45" d="M 2400 722 
Q 2759 722 2948 984 
Q 3138 1247 3138 1747 
Q 3138 2247 2948 2509 
Q 2759 2772 2400 2772 
Q 2041 2772 1848 2508 
Q 1656 2244 1656 1747 
Q 1656 1250 1848 986 
Q 2041 722 2400 722 
z
M 1656 2988 
Q 1888 3294 2169 3439 
Q 2450 3584 2816 3584 
Q 3463 3584 3878 3070 
Q 4294 2556 4294 1747 
Q 4294 938 3878 423 
Q 3463 -91 2816 -91 
Q 2450 -91 2169 54 
Q 1888 200 1656 506 
L 1656 0 
L 538 0 
L 538 4863 
L 1656 4863 
L 1656 2988 
z
" transform="scale(0.015625)"/>
      <path id="DejaVuSans-Bold-44" d="M 2106 1575 
Q 1756 1575 1579 1456 
Q 1403 1338 1403 1106 
Q 1403 894 1545 773 
Q 1688 653 1941 653 
Q 2256 653 2472 879 
Q 2688 1106 2688 1447 
L 2688 1575 
L 2106 1575 
z
M 3816 1997 
L 3816 0 
L 2688 0 
L 2688 519 
Q 2463 200 2181 54 
Q 1900 -91 1497 -91 
Q 953 -91 614 226 
Q 275 544 275 1050 
Q 275 1666 698 1953 
Q 1122 2241 2028 2241 
L 2688 2241 
L 2688 2328 
Q 2688 2594 2478 2717 
Q 2269 2841 1825 2841 
Q 1466 2841 1156 2769 
Q 847 2697 581 2553 
L 581 3406 
Q 941 3494 1303 3539 
Q 1666 3584 2028 3584 
Q 2975 3584 3395 3211 
Q 3816 2838 3816 1997 
z
" transform="scale(0.015625)"/>
      <path id="DejaVuSans-Bold-af6" d="M 344 2156 
L 6056 2156 
L 6056 1350 
L 344 1350 
L 344 2156 
z
" transform="scale(0.015625)"/>
      <path id="DejaVuSans-Bold-58" d="M 500 1363 
L 500 3500 
L 1625 3500 
L 1625 3150 
Q 1625 2866 1622 2436 
Q 1619 2006 1619 1863 
Q 1619 1441 1641 1255 
Q 1663 1069 1716 984 
Q 1784 875 1895 815 
Q 2006 756 2150 756 
Q 2500 756 2700 1025 
Q 2900 1294 2900 1772 
L 2900 3500 
L 4019 3500 
L 4019 0 
L 2900 0 
L 2900 506 
Q 2647 200 2364 54 
Q 2081 -91 1741 -91 
Q 1134 -91 817 281 
Q 500 653 500 1363 
z
" transform="scale(0.015625)"/>
      <path id="DejaVuSans-Bold-57" d="M 1759 4494 
L 1759 3500 
L 2913 3500 
L 2913 2700 
L 1759 2700 
L 1759 1216 
Q 1759 972 1856 886 
Q 1953 800 2241 800 
L 2816 800 
L 2816 0 
L 1856 0 
Q 1194 0 917 276 
Q 641 553 641 1216 
L 641 2700 
L 84 2700 
L 84 3500 
L 641 3500 
L 641 4494 
L 1759 4494 
z
" transform="scale(0.015625)"/>
      <path id="DejaVuSans-Bold-4b" d="M 4056 2131 
L 4056 0 
L 2931 0 
L 2931 347 
L 2931 1625 
Q 2931 2084 2911 2256 
Q 2891 2428 2841 2509 
Q 2775 2619 2662 2680 
Q 2550 2741 2406 2741 
Q 2056 2741 1856 2470 
Q 1656 2200 1656 1722 
L 1656 0 
L 538 0 
L 538 4863 
L 1656 4863 
L 1656 2988 
Q 1909 3294 2193 3439 
Q 2478 3584 2822 3584 
Q 3428 3584 3742 3212 
Q 4056 2841 4056 2131 
z
" transform="scale(0.015625)"/>
      <path id="DejaVuSans-Bold-79" d="M 653 2828 
L 1778 2828 
L 1778 1619 
L 653 1619 
L 653 2828 
z
" transform="scale(0.015625)"/>
      <path id="DejaVuSans-Bold-4a" d="M 2919 594 
Q 2688 288 2409 144 
Q 2131 0 1766 0 
Q 1125 0 706 504 
Q 288 1009 288 1791 
Q 288 2575 706 3076 
Q 1125 3578 1766 3578 
Q 2131 3578 2409 3434 
Q 2688 3291 2919 2981 
L 2919 3500 
L 4044 3500 
L 4044 353 
Q 4044 -491 3511 -936 
Q 2978 -1381 1966 -1381 
Q 1638 -1381 1331 -1331 
Q 1025 -1281 716 -1178 
L 716 -306 
Q 1009 -475 1290 -558 
Q 1572 -641 1856 -641 
Q 2406 -641 2662 -400 
Q 2919 -159 2919 353 
L 2919 594 
z
M 2181 2772 
Q 1834 2772 1640 2515 
Q 1447 2259 1447 1791 
Q 1447 1309 1634 1061 
Q 1822 813 2181 813 
Q 2531 813 2725 1069 
Q 2919 1325 2919 1791 
Q 2919 2259 2725 2515 
Q 2531 2772 2181 2772 
z
" transform="scale(0.015625)"/>
     </defs>
     <use xlink:href="#DejaVuSans-Bold-29"/>
     <use xlink:href="#DejaVuSans-Bold-4c" transform="translate(68.3125 0)"/>
     <use xlink:href="#DejaVuSans-Bold-55" transform="translate(102.59375 0)"/>
     <use xlink:href="#DejaVuSans-Bold-48" transform="translate(151.90625 0)"/>
     <use xlink:href="#DejaVuSans-Bold-45" transform="translate(219.734375 0)"/>
     <use xlink:href="#DejaVuSans-Bold-44" transform="translate(291.3125 0)"/>
     <use xlink:href="#DejaVuSans-Bold-56" transform="translate(358.796875 0)"/>
     <use xlink:href="#DejaVuSans-Bold-48" transform="translate(418.3125 0)"/>
     <use xlink:href="#DejaVuSans-Bold-3" transform="translate(486.140625 0)"/>
     <use xlink:href="#DejaVuSans-Bold-3" transform="translate(520.953125 0)"/>
     <use xlink:href="#DejaVuSans-Bold-af6" transform="translate(555.765625 0)"/>
     <use xlink:href="#DejaVuSans-Bold-3" transform="translate(655.765625 0)"/>
     <use xlink:href="#DejaVuSans-Bold-3" transform="translate(690.578125 0)"/>
     <use xlink:href="#DejaVuSans-Bold-24" transform="translate(725.390625 0)"/>
     <use xlink:href="#DejaVuSans-Bold-58" transform="translate(802.78125 0)"/>
     <use xlink:href="#DejaVuSans-Bold-57" transform="translate(873.96875 0)"/>
     <use xlink:href="#DejaVuSans-Bold-4b" transform="translate(921.765625 0)"/>
     <use xlink:href="#DejaVuSans-Bold-3" transform="translate(992.953125 0)"/>
     <use xlink:href="#DejaVuSans-Bold-79" transform="translate(1027.765625 0)"/>
     <use xlink:href="#DejaVuSans-Bold-3" transform="translate(1065.75 0)"/>
     <use xlink:href="#DejaVuSans-Bold-29" transform="translate(1100.5625 0)"/>
     <use xlink:href="#DejaVuSans-Bold-4c" transform="translate(1168.875 0)"/>
     <use xlink:href="#DejaVuSans-Bold-55" transform="translate(1203.15625 0)"/>
     <use xlink:href="#DejaVuSans-Bold-48" transform="translate(1252.46875 0)"/>
     <use xlink:href="#DejaVuSans-Bold-56" transform="translate(1320.296875 0)"/>
     <use xlink:href="#DejaVuSans-Bold-57" transform="translate(1379.8125 0)"/>
     <use xlink:href="#DejaVuSans-Bold-52" transform="translate(1427.609375 0)"/>
     <use xlink:href="#DejaVuSans-Bold-55" transform="translate(1496.3125 0)"/>
     <use xlink:href="#DejaVuSans-Bold-48" transform="translate(1545.625 0)"/>
     <use xlink:href="#DejaVuSans-Bold-3" transform="translate(1613.453125 0)"/>
     <use xlink:href="#DejaVuSans-Bold-79" transform="translate(1648.265625 0)"/>
     <use xlink:href="#DejaVuSans-Bold-3" transform="translate(1686.25 0)"/>
     <use xlink:href="#DejaVuSans-Bold-36" transform="translate(1721.0625 0)"/>
     <use xlink:href="#DejaVuSans-Bold-57" transform="translate(1793.078125 0)"/>
     <use xlink:href="#DejaVuSans-Bold-52" transform="translate(1840.875 0)"/>
     <use xlink:href="#DejaVuSans-Bold-55" transform="translate(1909.578125 0)"/>
     <use xlink:href="#DejaVuSans-Bold-44" transform="translate(1958.890625 0)"/>
     <use xlink:href="#DejaVuSans-Bold-4a" transform="translate(2026.375 0)"/>
     <use xlink:href="#DejaVuSans-Bold-48" transform="translate(2097.953125 0)"/>
    </g>
   </g>
   <g id="patch_28">
    <path d="M 188.7453 78.663948 
L 196.2783 78.663948 
L 196.2783 76.088671 
L 188.7453 76.088671 
z
" clip-path="url(#p4b19a5cfe7)" style="fill: #ffffff; stroke: #2563eb; stroke-width: 0.8; stroke-linejoin: miter"/>
   </g>
   <g id="patch_29">
    <path d="M 188.7453 75.444852 
L 196.2783 75.444852 
L 196.2783 72.869574 
L 188.7453 72.869574 
z
" clip-path="url(#p4b19a5cfe7)" style="fill: #ffffff; stroke: #2563eb; stroke-width: 0.8; stroke-linejoin: miter"/>
   </g>
   <g id="patch_30">
    <path d="M 188.7453 155.922271 
L 196.2783 155.922271 
L 196.2783 153.346994 
L 188.7453 153.346994 
z
" clip-path="url(#p4b19a5cfe7)" style="fill: #ffffff; stroke: #2563eb; stroke-width: 0.8; stroke-linejoin: miter"/>
   </g>
   <g id="patch_31">
    <path d="M 188.7453 152.703174 
L 196.2783 152.703174 
L 196.2783 150.127897 
L 188.7453 150.127897 
z
" clip-path="url(#p4b19a5cfe7)" style="fill: #ffffff; stroke: #2563eb; stroke-width: 0.8; stroke-linejoin: miter"/>
   </g>
   <g id="patch_32">
    <path d="M 437.3343 78.663948 
L 444.8673 78.663948 
L 444.8673 76.088671 
L 437.3343 76.088671 
z
" clip-path="url(#p4b19a5cfe7)" style="fill: #ffffff; stroke: #2563eb; stroke-width: 0.8; stroke-linejoin: miter"/>
   </g>
   <g id="patch_33">
    <path d="M 437.3343 75.444852 
L 444.8673 75.444852 
L 444.8673 72.869574 
L 437.3343 72.869574 
z
" clip-path="url(#p4b19a5cfe7)" style="fill: #ffffff; stroke: #2563eb; stroke-width: 0.8; stroke-linejoin: miter"/>
   </g>
   <g id="patch_34">
    <path d="M 437.3343 155.922271 
L 444.8673 155.922271 
L 444.8673 153.346994 
L 437.3343 153.346994 
z
" clip-path="url(#p4b19a5cfe7)" style="fill: #ffffff; stroke: #2563eb; stroke-width: 0.8; stroke-linejoin: miter"/>
   </g>
   <g id="patch_35">
    <path d="M 437.3343 152.703174 
L 444.8673 152.703174 
L 444.8673 150.127897 
L 437.3343 150.127897 
z
" clip-path="url(#p4b19a5cfe7)" style="fill: #ffffff; stroke: #2563eb; stroke-width: 0.8; stroke-linejoin: miter"/>
   </g>
   <g id="patch_36">
    <path d="M 565.3953 110.854916 
L 572.9283 110.854916 
L 572.9283 108.279639 
L 565.3953 108.279639 
z
" clip-path="url(#p4b19a5cfe7)" style="fill: #ffffff; stroke: #2563eb; stroke-width: 0.8; stroke-linejoin: miter"/>
   </g>
   <g id="patch_37">
    <path d="M 565.3953 107.635819 
L 572.9283 107.635819 
L 572.9283 105.060542 
L 565.3953 105.060542 
z
" clip-path="url(#p4b19a5cfe7)" style="fill: #ffffff; stroke: #2563eb; stroke-width: 0.8; stroke-linejoin: miter"/>
   </g>
   <g id="patch_38">
    <path d="M 723.5883 114.074013 
L 731.1213 114.074013 
L 731.1213 111.498735 
L 723.5883 111.498735 
z
" clip-path="url(#p4b19a5cfe7)" style="fill: #ffffff; stroke: #7c3aed; stroke-width: 0.8; stroke-linejoin: miter"/>
   </g>
   <g id="patch_39">
    <path d="M 723.5883 110.854916 
L 731.1213 110.854916 
L 731.1213 108.279639 
L 723.5883 108.279639 
z
" clip-path="url(#p4b19a5cfe7)" style="fill: #ffffff; stroke: #7c3aed; stroke-width: 0.8; stroke-linejoin: miter"/>
   </g>
   <g id="patch_40">
    <path d="M 716.0553 323.315303 
L 723.5883 323.315303 
L 723.5883 320.740026 
L 716.0553 320.740026 
z
" clip-path="url(#p4b19a5cfe7)" style="fill: #ffffff; stroke: #ea580c; stroke-width: 0.8; stroke-linejoin: miter"/>
   </g>
   <g id="patch_41">
    <path d="M 716.0553 320.096206 
L 723.5883 320.096206 
L 723.5883 317.520929 
L 716.0553 317.520929 
z
" clip-path="url(#p4b19a5cfe7)" style="fill: #ffffff; stroke: #ea580c; stroke-width: 0.8; stroke-linejoin: miter"/>
   </g>
   <g id="patch_42">
    <path d="M 414.7353 326.5344 
L 422.2683 326.5344 
L 422.2683 323.959123 
L 414.7353 323.959123 
z
" clip-path="url(#p4b19a5cfe7)" style="fill: #ffffff; stroke: #ea580c; stroke-width: 0.8; stroke-linejoin: miter"/>
   </g>
   <g id="patch_43">
    <path d="M 414.7353 323.315303 
L 422.2683 323.315303 
L 422.2683 320.740026 
L 414.7353 320.740026 
z
" clip-path="url(#p4b19a5cfe7)" style="fill: #ffffff; stroke: #ea580c; stroke-width: 0.8; stroke-linejoin: miter"/>
   </g>
   <g id="text_12">
    <g id="patch_44">
     <path d="M 246.965625 87.005226 
L 302.277375 87.005226 
Q 303.393375 87.005226 303.393375 85.889226 
L 303.393375 76.589226 
Q 303.393375 75.473226 302.277375 75.473226 
L 246.965625 75.473226 
Q 245.849625 75.473226 245.849625 76.589226 
L 245.849625 85.889226 
Q 245.849625 87.005226 246.965625 87.005226 
z
" style="fill: #ffffff"/>
    </g>
    <!-- REST + SSE -->
    <g style="fill: #64748b" transform="translate(246.965625 83.655046) scale(0.093 -0.093)">
     <defs>
      <path id="DejaVuSans-35" d="M 2841 2188 
Q 3044 2119 3236 1894 
Q 3428 1669 3622 1275 
L 4263 0 
L 3584 0 
L 2988 1197 
Q 2756 1666 2539 1819 
Q 2322 1972 1947 1972 
L 1259 1972 
L 1259 0 
L 628 0 
L 628 4666 
L 2053 4666 
Q 2853 4666 3247 4331 
Q 3641 3997 3641 3322 
Q 3641 2881 3436 2590 
Q 3231 2300 2841 2188 
z
M 1259 4147 
L 1259 2491 
L 2053 2491 
Q 2509 2491 2742 2702 
Q 2975 2913 2975 3322 
Q 2975 3731 2742 3939 
Q 2509 4147 2053 4147 
L 1259 4147 
z
" transform="scale(0.015625)"/>
      <path id="DejaVuSans-28" d="M 628 4666 
L 3578 4666 
L 3578 4134 
L 1259 4134 
L 1259 2753 
L 3481 2753 
L 3481 2222 
L 1259 2222 
L 1259 531 
L 3634 531 
L 3634 0 
L 628 0 
L 628 4666 
z
" transform="scale(0.015625)"/>
      <path id="DejaVuSans-e" d="M 2944 4013 
L 2944 2272 
L 4684 2272 
L 4684 1741 
L 2944 1741 
L 2944 0 
L 2419 0 
L 2419 1741 
L 678 1741 
L 678 2272 
L 2419 2272 
L 2419 4013 
L 2944 4013 
z
" transform="scale(0.015625)"/>
     </defs>
     <use xlink:href="#DejaVuSans-35"/>
     <use xlink:href="#DejaVuSans-28" transform="translate(69.484375 0)"/>
     <use xlink:href="#DejaVuSans-36" transform="translate(132.671875 0)"/>
     <use xlink:href="#DejaVuSans-37" transform="translate(196.15625 0)"/>
     <use xlink:href="#DejaVuSans-3" transform="translate(257.234375 0)"/>
     <use xlink:href="#DejaVuSans-e" transform="translate(289.015625 0)"/>
     <use xlink:href="#DejaVuSans-3" transform="translate(372.8125 0)"/>
     <use xlink:href="#DejaVuSans-36" transform="translate(404.59375 0)"/>
     <use xlink:href="#DejaVuSans-36" transform="translate(468.078125 0)"/>
     <use xlink:href="#DejaVuSans-28" transform="translate(531.5625 0)"/>
    </g>
   </g>
   <g id="text_13">
    <g id="patch_45">
     <path d="M 246.965625 164.263548 
L 302.277375 164.263548 
Q 303.393375 164.263548 303.393375 163.147548 
L 303.393375 153.847548 
Q 303.393375 152.731548 302.277375 152.731548 
L 246.965625 152.731548 
Q 245.849625 152.731548 245.849625 153.847548 
L 245.849625 163.147548 
Q 245.849625 164.263548 246.965625 164.263548 
z
" style="fill: #ffffff"/>
    </g>
    <!-- REST + SSE -->
    <g style="fill: #64748b" transform="translate(246.965625 160.913369) scale(0.093 -0.093)">
     <use xlink:href="#DejaVuSans-35"/>
     <use xlink:href="#DejaVuSans-28" transform="translate(69.484375 0)"/>
     <use xlink:href="#DejaVuSans-36" transform="translate(132.671875 0)"/>
     <use xlink:href="#DejaVuSans-37" transform="translate(196.15625 0)"/>
     <use xlink:href="#DejaVuSans-3" transform="translate(257.234375 0)"/>
     <use xlink:href="#DejaVuSans-e" transform="translate(289.015625 0)"/>
     <use xlink:href="#DejaVuSans-3" transform="translate(372.8125 0)"/>
     <use xlink:href="#DejaVuSans-36" transform="translate(404.59375 0)"/>
     <use xlink:href="#DejaVuSans-36" transform="translate(468.078125 0)"/>
     <use xlink:href="#DejaVuSans-28" transform="translate(531.5625 0)"/>
    </g>
   </g>
   <g id="text_14">
    <g id="patch_46">
     <path d="M 518.280773 83.786129 
L 580.871227 83.786129 
Q 581.987227 83.786129 581.987227 82.670129 
L 581.987227 73.370129 
Q 581.987227 72.254129 580.871227 72.254129 
L 518.280773 72.254129 
Q 517.164773 72.254129 517.164773 73.370129 
L 517.164773 82.670129 
Q 517.164773 83.786129 518.280773 83.786129 
z
" style="fill: #ffffff"/>
    </g>
    <!-- JSON-RPC 2.0 -->
    <g style="fill: #64748b" transform="translate(518.280773 80.435949) scale(0.093 -0.093)">
     <defs>
      <path id="DejaVuSans-32" d="M 2522 4238 
Q 1834 4238 1429 3725 
Q 1025 3213 1025 2328 
Q 1025 1447 1429 934 
Q 1834 422 2522 422 
Q 3209 422 3611 934 
Q 4013 1447 4013 2328 
Q 4013 3213 3611 3725 
Q 3209 4238 2522 4238 
z
M 2522 4750 
Q 3503 4750 4090 4092 
Q 4678 3434 4678 2328 
Q 4678 1225 4090 567 
Q 3503 -91 2522 -91 
Q 1538 -91 948 565 
Q 359 1222 359 2328 
Q 359 3434 948 4092 
Q 1538 4750 2522 4750 
z
" transform="scale(0.015625)"/>
      <path id="DejaVuSans-31" d="M 628 4666 
L 1478 4666 
L 3547 763 
L 3547 4666 
L 4159 4666 
L 4159 0 
L 3309 0 
L 1241 3903 
L 1241 0 
L 628 0 
L 628 4666 
z
" transform="scale(0.015625)"/>
      <path id="DejaVuSans-10" d="M 313 2009 
L 1997 2009 
L 1997 1497 
L 313 1497 
L 313 2009 
z
" transform="scale(0.015625)"/>
      <path id="DejaVuSans-26" d="M 4122 4306 
L 4122 3641 
Q 3803 3938 3442 4084 
Q 3081 4231 2675 4231 
Q 1875 4231 1450 3742 
Q 1025 3253 1025 2328 
Q 1025 1406 1450 917 
Q 1875 428 2675 428 
Q 3081 428 3442 575 
Q 3803 722 4122 1019 
L 4122 359 
Q 3791 134 3420 21 
Q 3050 -91 2638 -91 
Q 1578 -91 968 557 
Q 359 1206 359 2328 
Q 359 3453 968 4101 
Q 1578 4750 2638 4750 
Q 3056 4750 3426 4639 
Q 3797 4528 4122 4306 
z
" transform="scale(0.015625)"/>
      <path id="DejaVuSans-13" d="M 2034 4250 
Q 1547 4250 1301 3770 
Q 1056 3291 1056 2328 
Q 1056 1369 1301 889 
Q 1547 409 2034 409 
Q 2525 409 2770 889 
Q 3016 1369 3016 2328 
Q 3016 3291 2770 3770 
Q 2525 4250 2034 4250 
z
M 2034 4750 
Q 2819 4750 3233 4129 
Q 3647 3509 3647 2328 
Q 3647 1150 3233 529 
Q 2819 -91 2034 -91 
Q 1250 -91 836 529 
Q 422 1150 422 2328 
Q 422 3509 836 4129 
Q 1250 4750 2034 4750 
z
" transform="scale(0.015625)"/>
     </defs>
     <use xlink:href="#DejaVuSans-2d"/>
     <use xlink:href="#DejaVuSans-36" transform="translate(29.5 0)"/>
     <use xlink:href="#DejaVuSans-32" transform="translate(92.984375 0)"/>
     <use xlink:href="#DejaVuSans-31" transform="translate(171.703125 0)"/>
     <use xlink:href="#DejaVuSans-10" transform="translate(246.515625 0)"/>
     <use xlink:href="#DejaVuSans-35" transform="translate(282.59375 0)"/>
     <use xlink:href="#DejaVuSans-33" transform="translate(352.078125 0)"/>
     <use xlink:href="#DejaVuSans-26" transform="translate(412.375 0)"/>
     <use xlink:href="#DejaVuSans-3" transform="translate(482.203125 0)"/>
     <use xlink:href="#DejaVuSans-15" transform="translate(513.984375 0)"/>
     <use xlink:href="#DejaVuSans-11" transform="translate(577.609375 0)"/>
     <use xlink:href="#DejaVuSans-13" transform="translate(609.390625 0)"/>
    </g>
   </g>
   <g id="text_15">
    <g id="patch_47">
     <path d="M 609.239859 122.41529 
L 633.039141 122.41529 
Q 634.155141 122.41529 634.155141 121.29929 
L 634.155141 111.99929 
Q 634.155141 110.88329 633.039141 110.88329 
L 609.239859 110.88329 
Q 608.123859 110.88329 608.123859 111.99929 
L 608.123859 121.29929 
Q 608.123859 122.41529 609.239859 122.41529 
z
" style="fill: #ffffff"/>
    </g>
    <!-- HTTP -->
    <g style="fill: #64748b" transform="translate(609.239859 119.065111) scale(0.093 -0.093)">
     <use xlink:href="#DejaVuSans-2b"/>
     <use xlink:href="#DejaVuSans-37" transform="translate(75.203125 0)"/>
     <use xlink:href="#DejaVuSans-37" transform="translate(134.53125 0)"/>
     <use xlink:href="#DejaVuSans-33" transform="translate(195.609375 0)"/>
    </g>
   </g>
   <g id="text_16">
    <g id="patch_48">
     <path d="M 519.658336 292.3836 
L 549.361664 292.3836 
Q 550.477664 292.3836 550.477664 291.2676 
L 550.477664 281.9676 
Q 550.477664 280.8516 549.361664 280.8516 
L 519.658336 280.8516 
Q 518.542336 280.8516 518.542336 281.9676 
L 518.542336 291.2676 
Q 518.542336 292.3836 519.658336 292.3836 
z
" style="fill: #ffffff"/>
    </g>
    <!-- HTTPS -->
    <g style="fill: #64748b" transform="translate(519.658336 289.03342) scale(0.093 -0.093)">
     <use xlink:href="#DejaVuSans-2b"/>
     <use xlink:href="#DejaVuSans-37" transform="translate(75.203125 0)"/>
     <use xlink:href="#DejaVuSans-37" transform="translate(134.53125 0)"/>
     <use xlink:href="#DejaVuSans-33" transform="translate(195.609375 0)"/>
     <use xlink:href="#DejaVuSans-36" transform="translate(255.90625 0)"/>
    </g>
   </g>
   <g id="text_17">
    <g id="patch_49">
     <path d="M 350.776875 264.055912 
L 371.725125 264.055912 
Q 372.841125 264.055912 372.841125 262.939912 
L 372.841125 253.639185 
Q 372.841125 252.523185 371.725125 252.523185 
L 350.776875 252.523185 
Q 349.660875 252.523185 349.660875 253.639185 
L 349.660875 262.939912 
Q 349.660875 264.055912 350.776875 264.055912 
z
" style="fill: #ffffff"/>
    </g>
    <!-- adat -->
    <g style="fill: #64748b" transform="translate(350.776875 260.705732) scale(0.093 -0.093)">
     <use xlink:href="#DejaVuSans-44"/>
     <use xlink:href="#DejaVuSans-47" transform="translate(61.28125 0)"/>
     <use xlink:href="#DejaVuSans-44" transform="translate(124.765625 0)"/>
     <use xlink:href="#DejaVuSans-57" transform="translate(186.046875 0)"/>
    </g>
   </g>
   <g id="text_18">
    <g id="patch_50">
     <path d="M 137.729859 264.241912 
L 185.523141 264.241912 
Q 186.639141 264.241912 186.639141 263.125912 
L 186.639141 253.453185 
Q 186.639141 252.337185 185.523141 252.337185 
L 137.729859 252.337185 
Q 136.613859 252.337185 136.613859 253.453185 
L 136.613859 263.125912 
Q 136.613859 264.241912 137.729859 264.241912 
z
" style="fill: #ffffff"/>
    </g>
    <!-- hitelesítés -->
    <g style="fill: #64748b" transform="translate(137.729859 260.891732) scale(0.093 -0.093)">
     <defs>
      <path id="DejaVuSans-af" d="M 1325 5119 
L 1947 5119 
L 929 3944 
L 450 3944 
L 1325 5119 
z
M 603 3500 
L 1178 3500 
L 1178 0 
L 603 0 
L 603 3500 
z
M 891 3584 
L 891 3584 
z
" transform="scale(0.015625)"/>
      <path id="DejaVuSans-ab" d="M 3597 1894 
L 3597 1613 
L 953 1613 
Q 991 1019 1311 708 
Q 1631 397 2203 397 
Q 2534 397 2845 478 
Q 3156 559 3463 722 
L 3463 178 
Q 3153 47 2828 -22 
Q 2503 -91 2169 -91 
Q 1331 -91 842 396 
Q 353 884 353 1716 
Q 353 2575 817 3079 
Q 1281 3584 2069 3584 
Q 2775 3584 3186 3129 
Q 3597 2675 3597 1894 
z
M 3022 2063 
Q 3016 2534 2758 2815 
Q 2500 3097 2075 3097 
Q 1594 3097 1305 2825 
Q 1016 2553 972 2059 
L 3022 2063 
z
M 2468 5119 
L 3090 5119 
L 2072 3944 
L 1593 3944 
L 2468 5119 
z
" transform="scale(0.015625)"/>
     </defs>
     <use xlink:href="#DejaVuSans-4b"/>
     <use xlink:href="#DejaVuSans-4c" transform="translate(63.375 0)"/>
     <use xlink:href="#DejaVuSans-57" transform="translate(91.15625 0)"/>
     <use xlink:href="#DejaVuSans-48" transform="translate(130.359375 0)"/>
     <use xlink:href="#DejaVuSans-4f" transform="translate(191.890625 0)"/>
     <use xlink:href="#DejaVuSans-48" transform="translate(219.671875 0)"/>
     <use xlink:href="#DejaVuSans-56" transform="translate(281.203125 0)"/>
     <use xlink:href="#DejaVuSans-af" transform="translate(333.296875 0)"/>
     <use xlink:href="#DejaVuSans-57" transform="translate(361.078125 0)"/>
     <use xlink:href="#DejaVuSans-ab" transform="translate(400.28125 0)"/>
     <use xlink:href="#DejaVuSans-56" transform="translate(461.8125 0)"/>
    </g>
   </g>
  </g>
 </g>
 <defs>
  <clipPath id="p4b19a5cfe7">
   <rect x="7.2" y="7.2" width="753.3" height="399.168"/>
  </clipPath>
 </defs>
</svg>
