<?xml version="1.0" encoding="utf-8" standalone="no"?>
<!DOCTYPE svg PUBLIC "-//W3C//DTD SVG 1.1//EN"
  "http://www.w3.org/Graphics/SVG/1.1/DTD/svg11.dtd">
<svg xmlns:xlink="http://www.w3.org/1999/xlink" width="739.8pt" height="457.92pt" viewBox="0 0 739.8 457.92" xmlns="http://www.w3.org/2000/svg" version="1.1">
 <metadata>
  <rdf:RDF xmlns:dc="http://purl.org/dc/elements/1.1/" xmlns:cc="http://creativecommons.org/ns#" xmlns:rdf="http://www.w3.org/1999/02/22-rdf-syntax-ns#">
   <cc:Work>
    <dc:type rdf:resource="http://purl.org/dc/dcmitype/StillImage"/>
    <dc:date>2026-06-27T12:52:34.156708</dc:date>
    <dc:format>image/svg+xml</dc:format>
    <dc:creator>
     <cc:Agent>
      <dc:title>Matplotlib v3.11.0, https://matplotlib.org/</dc:title>
     </cc:Agent>
    </dc:creator>
   </cc:Work>
  </rdf:RDF>
 </metadata>
 <defs>
  <style type="text/css">*{stroke-linejoin: round; stroke-linecap: butt}</style>
 </defs>
 <g id="figure_1">
  <g id="patch_1">
   <path d="M 0 457.92 
L 739.8 457.92 
L 739.8 0 
L 0 0 
z
" style="fill: #ffffff"/>
  </g>
  <g id="axes_1">
   <g id="patch_2">
    <path d="M 152.28 444 
L 718.092 444 
L 718.092 20.64 
L 152.28 20.64 
L 152.28 444 
z
" clip-path="url(#pb0d1080d6f)" style="fill: none; stroke: #1f2933; stroke-width: 1.6; stroke-linejoin: miter"/>
   </g>
   <g id="patch_3">
    <path d="M 65.232 192.672 
C 68.310053 192.672 71.262452 191.539101 73.438964 189.522812 
C 75.615476 187.506523 76.8384 184.771464 76.8384 181.92 
C 76.8384 179.068536 75.615476 176.333477 73.438964 174.317188 
C 71.262452 172.300899 68.310053 171.168 65.232 171.168 
C 62.153947 171.168 59.201548 172.300899 57.025036 174.317188 
C 54.848524 176.333477 53.6256 179.068536 53.6256 181.92 
C 53.6256 184.771464 54.848524 187.506523 57.025036 189.522812 
C 59.201548 191.539101 62.153947 192.672 65.232 192.672 
L 65.232 192.672 
z
" clip-path="url(#pb0d1080d6f)" style="fill: none; stroke: #2563eb; stroke-width: 1.8; stroke-linejoin: miter"/>
   </g>
   <g id="line2d_1">
    <path d="M 84.0924 204.768 
L 126.891 204.768 
" clip-path="url(#pb0d1080d6f)" style="fill: none; stroke: #1f2933; stroke-width: 1.3; stroke-linecap: square"/>
   </g>
   <g id="line2d_2">
    <path d="M 126.891 410.4 
L 126.891 74.4 
" clip-path="url(#pb0d1080d6f)" style="fill: none; stroke: #1f2933; stroke-width: 1.3; stroke-linecap: square"/>
   </g>
   <g id="line2d_3">
    <path d="M 126.891 74.4 
L 188.55 74.4 
" clip-path="url(#pb0d1080d6f)" style="fill: none; stroke: #1f2933; stroke-width: 1.3; stroke-linecap: square"/>
   </g>
   <g id="line2d_4">
    <path d="M 126.891 141.6 
L 188.55 141.6 
" clip-path="url(#pb0d1080d6f)" style="fill: none; stroke: #1f2933; stroke-width: 1.3; stroke-linecap: square"/>
   </g>
   <g id="line2d_5">
    <path d="M 126.891 208.8 
L 188.55 208.8 
" clip-path="url(#pb0d1080d6f)" style="fill: none; stroke: #1f2933; stroke-width: 1.3; stroke-linecap: square"/>
   </g>
   <g id="line2d_6">
    <path d="M 126.891 276 
L 188.55 276 
" clip-path="url(#pb0d1080d6f)" style="fill: none; stroke: #1f2933; stroke-width: 1.3; stroke-linecap: square"/>
   </g>
   <g id="line2d_7">
    <path d="M 126.891 343.2 
L 188.55 343.2 
" clip-path="url(#pb0d1080d6f)" style="fill: none; stroke: #1f2933; stroke-width: 1.3; stroke-linecap: square"/>
   </g>
   <g id="line2d_8">
    <path d="M 126.891 410.4 
L 188.55 410.4 
" clip-path="url(#pb0d1080d6f)" style="fill: none; stroke: #1f2933; stroke-width: 1.3; stroke-linecap: square"/>
   </g>
   <g id="line2d_9">
    <path d="M 362.646 208.8 
L 420.678 208.8 
" clip-path="url(#pb0d1080d6f)" style="fill: none; stroke-dasharray: 4.81,2.08; stroke-dashoffset: 0; stroke: #1f2933; stroke-width: 1.3"/>
   </g>
   <g id="line2d_10">
    <path d="M 420.678 289.44 
L 420.678 128.16 
" clip-path="url(#pb0d1080d6f)" style="fill: none; stroke-dasharray: 4.81,2.08; stroke-dashoffset: 0; stroke: #1f2933; stroke-width: 1.3"/>
   </g>
   <g id="patch_4">
    <path d="M 420.678 128.16 
Q 446.879334 128.16 471.627223 128.16 
" clip-path="url(#pb0d1080d6f)" style="fill: none; stroke-dasharray: 4.81,2.08; stroke-dashoffset: 0; stroke: #1f2933; stroke-width: 1.3; stroke-linecap: round"/>
    <path d="M 466.427223 125.56 
L 471.627223 128.16 
L 466.427223 130.76 
z
" clip-path="url(#pb0d1080d6f)" style="fill: #1f2933; stroke-dasharray: 4.81,2.08; stroke-dashoffset: 0; stroke: #1f2933; stroke-width: 1.3; stroke-linecap: round"/>
   </g>
   <g id="patch_5">
    <path d="M 420.678 208.8 
Q 446.879334 208.8 471.627223 208.8 
" clip-path="url(#pb0d1080d6f)" style="fill: none; stroke-dasharray: 4.81,2.08; stroke-dashoffset: 0; stroke: #1f2933; stroke-width: 1.3; stroke-linecap: round"/>
    <path d="M 466.427223 206.2 
L 471.627223 208.8 
L 466.427223 211.4 
z
" clip-path="url(#pb0d1080d6f)" style="fill: #1f2933; stroke-dasharray: 4.81,2.08; stroke-dashoffset: 0; stroke: #1f2933; stroke-width: 1.3; stroke-linecap: round"/>
   </g>
   <g id="patch_6">
    <path d="M 420.678 289.44 
Q 446.879334 289.44 471.627223 289.44 
" clip-path="url(#pb0d1080d6f)" style="fill: none; stroke-dasharray: 4.81,2.08; stroke-dashoffset: 0; stroke: #1f2933; stroke-width: 1.3; stroke-linecap: round"/>
    <path d="M 466.427223 286.84 
L 471.627223 289.44 
L 466.427223 292.04 
z
" clip-path="url(#pb0d1080d6f)" style="fill: #1f2933; stroke-dasharray: 4.81,2.08; stroke-dashoffset: 0; stroke: #1f2933; stroke-width: 1.3; stroke-linecap: round"/>
   </g>
   <g id="line2d_11">
    <path d="M 65.232 192.672 
L 65.232 228.96 
" clip-path="url(#pb0d1080d6f)" style="fill: none; stroke: #2563eb; stroke-width: 1.8; stroke-linecap: square"/>
   </g>
   <g id="line2d_12">
    <path d="M 46.3716 204.768 
L 84.0924 204.768 
" clip-path="url(#pb0d1080d6f)" style="fill: none; stroke: #2563eb; stroke-width: 1.8; stroke-linecap: square"/>
   </g>
   <g id="line2d_13">
    <path d="M 65.232 228.96 
L 46.3716 255.84 
" clip-path="url(#pb0d1080d6f)" style="fill: none; stroke: #2563eb; stroke-width: 1.8; stroke-linecap: square"/>
   </g>
   <g id="line2d_14">
    <path d="M 65.232 228.96 
L 84.0924 255.84 
" clip-path="url(#pb0d1080d6f)" style="fill: none; stroke: #2563eb; stroke-width: 1.8; stroke-linecap: square"/>
   </g>
   <g id="text_1">
    <!-- Bőrelváltozás-szűrő rendszer -->
    <g style="fill: #1f2933" transform="translate(320.176 42.029266) scale(0.14 -0.14)">
     <defs>
      <path id="DejaVuSans-Bold-25" d="M 2456 2859 
Q 2741 2859 2887 2984 
Q 3034 3109 3034 3353 
Q 3034 3594 2887 3720 
Q 2741 3847 2456 3847 
L 1791 3847 
L 1791 2859 
L 2456 2859 
z
M 2497 819 
Q 2859 819 3042 972 
Q 3225 1125 3225 1434 
Q 3225 1738 3044 1889 
Q 2863 2041 2497 2041 
L 1791 2041 
L 1791 819 
L 2497 819 
z
M 3616 2497 
Q 4003 2384 4215 2081 
Q 4428 1778 4428 1338 
Q 4428 663 3972 331 
Q 3516 0 2584 0 
L 588 0 
L 588 4666 
L 2394 4666 
Q 3366 4666 3802 4372 
Q 4238 4078 4238 3431 
Q 4238 3091 4078 2852 
Q 3919 2613 3616 2497 
z
" transform="scale(0.015625)"/>
      <path id="DejaVuSans-Bold-113" d="M 1881 5119 
L 2560 5119 
L 1785 3944 
L 1275 3944 
L 1881 5119 
z
M 3016 5119 
L 3738 5119 
L 2888 3944 
L 2344 3944 
L 3016 5119 
z
M 2203 2784 
Q 1831 2784 1636 2517 
Q 1441 2250 1441 1747 
Q 1441 1244 1636 976 
Q 1831 709 2203 709 
Q 2569 709 2762 976 
Q 2956 1244 2956 1747 
Q 2956 2250 2762 2517 
Q 2569 2784 2203 2784 
z
M 2203 3584 
Q 3106 3584 3614 3096 
Q 4122 2609 4122 1747 
Q 4122 884 3614 396 
Q 3106 -91 2203 -91 
Q 1297 -91 786 396 
Q 275 884 275 1747 
Q 275 2609 786 3096 
Q 1297 3584 2203 3584 
z
" transform="scale(0.015625)"/>
      <path id="DejaVuSans-Bold-55" d="M 3138 2547 
Q 2991 2616 2845 2648 
Q 2700 2681 2553 2681 
Q 2122 2681 1889 2404 
Q 1656 2128 1656 1613 
L 1656 0 
L 538 0 
L 538 3500 
L 1656 3500 
L 1656 2925 
Q 1872 3269 2151 3426 
Q 2431 3584 2822 3584 
Q 2878 3584 2943 3579 
Q 3009 3575 3134 3559 
L 3138 2547 
z
" transform="scale(0.015625)"/>
      <path id="DejaVuSans-Bold-48" d="M 4031 1759 
L 4031 1441 
L 1416 1441 
Q 1456 1047 1700 850 
Q 1944 653 2381 653 
Q 2734 653 3104 758 
Q 3475 863 3866 1075 
L 3866 213 
Q 3469 63 3072 -14 
Q 2675 -91 2278 -91 
Q 1328 -91 801 392 
Q 275 875 275 1747 
Q 275 2603 792 3093 
Q 1309 3584 2216 3584 
Q 3041 3584 3536 3087 
Q 4031 2591 4031 1759 
z
M 2881 2131 
Q 2881 2450 2695 2645 
Q 2509 2841 2209 2841 
Q 1884 2841 1681 2658 
Q 1478 2475 1428 2131 
L 2881 2131 
z
" transform="scale(0.015625)"/>
      <path id="DejaVuSans-Bold-4f" d="M 538 4863 
L 1656 4863 
L 1656 0 
L 538 0 
L 538 4863 
z
" transform="scale(0.015625)"/>
      <path id="DejaVuSans-Bold-59" d="M 97 3500 
L 1216 3500 
L 2088 1081 
L 2956 3500 
L 4078 3500 
L 2700 0 
L 1472 0 
L 97 3500 
z
" transform="scale(0.015625)"/>
      <path id="DejaVuSans-Bold-a3" d="M 2106 1575 
Q 1756 1575 1579 1456 
Q 1403 1338 1403 1106 
Q 1403 894 1545 773 
Q 1688 653 1941 653 
Q 2256 653 2472 879 
Q 2688 1106 2688 1447 
L 2688 1575 
L 2106 1575 
z
M 3816 1997 
L 3816 0 
L 2688 0 
L 2688 519 
Q 2463 200 2181 54 
Q 1900 -91 1497 -91 
Q 953 -91 614 226 
Q 275 544 275 1050 
Q 275 1666 698 1953 
Q 1122 2241 2028 2241 
L 2688 2241 
L 2688 2328 
Q 2688 2594 2478 2717 
Q 2269 2841 1825 2841 
Q 1466 2841 1156 2769 
Q 847 2697 581 2553 
L 581 3406 
Q 941 3494 1303 3539 
Q 1666 3584 2028 3584 
Q 2975 3584 3395 3211 
Q 3816 2838 3816 1997 
z
M 2603 5119 
L 3487 5119 
L 2334 3944 
L 1722 3944 
L 2603 5119 
z
" transform="scale(0.015625)"/>
      <path id="DejaVuSans-Bold-57" d="M 1759 4494 
L 1759 3500 
L 2913 3500 
L 2913 2700 
L 1759 2700 
L 1759 1216 
Q 1759 972 1856 886 
Q 1953 800 2241 800 
L 2816 800 
L 2816 0 
L 1856 0 
Q 1194 0 917 276 
Q 641 553 641 1216 
L 641 2700 
L 84 2700 
L 84 3500 
L 641 3500 
L 641 4494 
L 1759 4494 
z
" transform="scale(0.015625)"/>
      <path id="DejaVuSans-Bold-52" d="M 2203 2784 
Q 1831 2784 1636 2517 
Q 1441 2250 1441 1747 
Q 1441 1244 1636 976 
Q 1831 709 2203 709 
Q 2569 709 2762 976 
Q 2956 1244 2956 1747 
Q 2956 2250 2762 2517 
Q 2569 2784 2203 2784 
z
M 2203 3584 
Q 3106 3584 3614 3096 
Q 4122 2609 4122 1747 
Q 4122 884 3614 396 
Q 3106 -91 2203 -91 
Q 1297 -91 786 396 
Q 275 884 275 1747 
Q 275 2609 786 3096 
Q 1297 3584 2203 3584 
z
" transform="scale(0.015625)"/>
      <path id="DejaVuSans-Bold-5d" d="M 366 3500 
L 3419 3500 
L 3419 2719 
L 1575 800 
L 3419 800 
L 3419 0 
L 288 0 
L 288 781 
L 2131 2700 
L 366 2700 
L 366 3500 
z
" transform="scale(0.015625)"/>
      <path id="DejaVuSans-Bold-56" d="M 3272 3391 
L 3272 2541 
Q 2913 2691 2578 2766 
Q 2244 2841 1947 2841 
Q 1628 2841 1473 2761 
Q 1319 2681 1319 2516 
Q 1319 2381 1436 2309 
Q 1553 2238 1856 2203 
L 2053 2175 
Q 2913 2066 3209 1816 
Q 3506 1566 3506 1031 
Q 3506 472 3093 190 
Q 2681 -91 1863 -91 
Q 1516 -91 1145 -36 
Q 775 19 384 128 
L 384 978 
Q 719 816 1070 734 
Q 1422 653 1784 653 
Q 2113 653 2278 743 
Q 2444 834 2444 1013 
Q 2444 1163 2330 1236 
Q 2216 1309 1875 1350 
L 1678 1375 
Q 931 1469 631 1722 
Q 331 1975 331 2491 
Q 331 3047 712 3315 
Q 1094 3584 1881 3584 
Q 2191 3584 2531 3537 
Q 2872 3491 3272 3391 
z
" transform="scale(0.015625)"/>
      <path id="DejaVuSans-Bold-10" d="M 347 2297 
L 2309 2297 
L 2309 1388 
L 347 1388 
L 347 2297 
z
" transform="scale(0.015625)"/>
      <path id="DejaVuSans-Bold-133" d="M 1965 5119 
L 2644 5119 
L 1869 3944 
L 1359 3944 
L 1965 5119 
z
M 3100 5119 
L 3822 5119 
L 2972 3944 
L 2428 3944 
L 3100 5119 
z
M 500 1363 
L 500 3500 
L 1625 3500 
L 1625 3150 
Q 1625 2866 1622 2436 
Q 1619 2006 1619 1863 
Q 1619 1441 1641 1255 
Q 1663 1069 1716 984 
Q 1784 875 1895 815 
Q 2006 756 2150 756 
Q 2500 756 2700 1025 
Q 2900 1294 2900 1772 
L 2900 3500 
L 4019 3500 
L 4019 0 
L 2900 0 
L 2900 506 
Q 2647 200 2364 54 
Q 2081 -91 1741 -91 
Q 1134 -91 817 281 
Q 500 653 500 1363 
z
" transform="scale(0.015625)"/>
      <path id="DejaVuSans-Bold-3" transform="scale(0.015625)"/>
      <path id="DejaVuSans-Bold-51" d="M 4056 2131 
L 4056 0 
L 2931 0 
L 2931 347 
L 2931 1631 
Q 2931 2084 2911 2256 
Q 2891 2428 2841 2509 
Q 2775 2619 2662 2680 
Q 2550 2741 2406 2741 
Q 2056 2741 1856 2470 
Q 1656 2200 1656 1722 
L 1656 0 
L 538 0 
L 538 3500 
L 1656 3500 
L 1656 2988 
Q 1909 3294 2193 3439 
Q 2478 3584 2822 3584 
Q 3428 3584 3742 3212 
Q 4056 2841 4056 2131 
z
" transform="scale(0.015625)"/>
      <path id="DejaVuSans-Bold-47" d="M 2919 2988 
L 2919 4863 
L 4044 4863 
L 4044 0 
L 2919 0 
L 2919 506 
Q 2688 197 2409 53 
Q 2131 -91 1766 -91 
Q 1119 -91 703 423 
Q 288 938 288 1747 
Q 288 2556 703 3070 
Q 1119 3584 1766 3584 
Q 2128 3584 2408 3439 
Q 2688 3294 2919 2988 
z
M 2181 722 
Q 2541 722 2730 984 
Q 2919 1247 2919 1747 
Q 2919 2247 2730 2509 
Q 2541 2772 2181 2772 
Q 1825 2772 1636 2509 
Q 1447 2247 1447 1747 
Q 1447 1247 1636 984 
Q 1825 722 2181 722 
z
" transform="scale(0.015625)"/>
     </defs>
     <use xlink:href="#DejaVuSans-Bold-25"/>
     <use xlink:href="#DejaVuSans-Bold-113" transform="translate(76.21875 0)"/>
     <use xlink:href="#DejaVuSans-Bold-55" transform="translate(144.921875 0)"/>
     <use xlink:href="#DejaVuSans-Bold-48" transform="translate(194.234375 0)"/>
     <use xlink:href="#DejaVuSans-Bold-4f" transform="translate(262.0625 0)"/>
     <use xlink:href="#DejaVuSans-Bold-59" transform="translate(296.34375 0)"/>
     <use xlink:href="#DejaVuSans-Bold-a3" transform="translate(361.53125 0)"/>
     <use xlink:href="#DejaVuSans-Bold-4f" transform="translate(429.015625 0)"/>
     <use xlink:href="#DejaVuSans-Bold-57" transform="translate(463.296875 0)"/>
     <use xlink:href="#DejaVuSans-Bold-52" transform="translate(511.09375 0)"/>
     <use xlink:href="#DejaVuSans-Bold-5d" transform="translate(579.796875 0)"/>
     <use xlink:href="#DejaVuSans-Bold-a3" transform="translate(638 0)"/>
     <use xlink:href="#DejaVuSans-Bold-56" transform="translate(705.484375 0)"/>
     <use xlink:href="#DejaVuSans-Bold-10" transform="translate(765 0)"/>
     <use xlink:href="#DejaVuSans-Bold-56" transform="translate(806.5 0)"/>
     <use xlink:href="#DejaVuSans-Bold-5d" transform="translate(866.015625 0)"/>
     <use xlink:href="#DejaVuSans-Bold-133" transform="translate(924.21875 0)"/>
     <use xlink:href="#DejaVuSans-Bold-55" transform="translate(995.40625 0)"/>
     <use xlink:href="#DejaVuSans-Bold-113" transform="translate(1044.71875 0)"/>
     <use xlink:href="#DejaVuSans-Bold-3" transform="translate(1113.421875 0)"/>
     <use xlink:href="#DejaVuSans-Bold-55" transform="translate(1148.234375 0)"/>
     <use xlink:href="#DejaVuSans-Bold-48" transform="translate(1197.546875 0)"/>
     <use xlink:href="#DejaVuSans-Bold-51" transform="translate(1265.375 0)"/>
     <use xlink:href="#DejaVuSans-Bold-47" transform="translate(1336.5625 0)"/>
     <use xlink:href="#DejaVuSans-Bold-56" transform="translate(1408.140625 0)"/>
     <use xlink:href="#DejaVuSans-Bold-5d" transform="translate(1467.65625 0)"/>
     <use xlink:href="#DejaVuSans-Bold-48" transform="translate(1525.859375 0)"/>
     <use xlink:href="#DejaVuSans-Bold-55" transform="translate(1593.6875 0)"/>
    </g>
   </g>
   <g id="text_2">
    <!-- Felhasználó -->
    <g style="fill: #1f2933" transform="translate(28.718328 276.137559) scale(0.125 -0.125)">
     <defs>
      <path id="DejaVuSans-29" d="M 628 4666 
L 3309 4666 
L 3309 4134 
L 1259 4134 
L 1259 2759 
L 3109 2759 
L 3109 2228 
L 1259 2228 
L 1259 0 
L 628 0 
L 628 4666 
z
" transform="scale(0.015625)"/>
      <path id="DejaVuSans-48" d="M 3597 1894 
L 3597 1613 
L 953 1613 
Q 991 1019 1311 708 
Q 1631 397 2203 397 
Q 2534 397 2845 478 
Q 3156 559 3463 722 
L 3463 178 
Q 3153 47 2828 -22 
Q 2503 -91 2169 -91 
Q 1331 -91 842 396 
Q 353 884 353 1716 
Q 353 2575 817 3079 
Q 1281 3584 2069 3584 
Q 2775 3584 3186 3129 
Q 3597 2675 3597 1894 
z
M 3022 2063 
Q 3016 2534 2758 2815 
Q 2500 3097 2075 3097 
Q 1594 3097 1305 2825 
Q 1016 2553 972 2059 
L 3022 2063 
z
" transform="scale(0.015625)"/>
      <path id="DejaVuSans-4f" d="M 603 4863 
L 1178 4863 
L 1178 0 
L 603 0 
L 603 4863 
z
" transform="scale(0.015625)"/>
      <path id="DejaVuSans-4b" d="M 3513 2113 
L 3513 0 
L 2938 0 
L 2938 2094 
Q 2938 2591 2744 2837 
Q 2550 3084 2163 3084 
Q 1697 3084 1428 2787 
Q 1159 2491 1159 1978 
L 1159 0 
L 581 0 
L 581 4863 
L 1159 4863 
L 1159 2956 
Q 1366 3272 1645 3428 
Q 1925 3584 2291 3584 
Q 2894 3584 3203 3211 
Q 3513 2838 3513 2113 
z
" transform="scale(0.015625)"/>
      <path id="DejaVuSans-44" d="M 2194 1759 
Q 1497 1759 1228 1600 
Q 959 1441 959 1056 
Q 959 750 1161 570 
Q 1363 391 1709 391 
Q 2188 391 2477 730 
Q 2766 1069 2766 1631 
L 2766 1759 
L 2194 1759 
z
M 3341 1997 
L 3341 0 
L 2766 0 
L 2766 531 
Q 2569 213 2275 61 
Q 1981 -91 1556 -91 
Q 1019 -91 701 211 
Q 384 513 384 1019 
Q 384 1609 779 1909 
Q 1175 2209 1959 2209 
L 2766 2209 
L 2766 2266 
Q 2766 2663 2505 2880 
Q 2244 3097 1772 3097 
Q 1472 3097 1187 3025 
Q 903 2953 641 2809 
L 641 3341 
Q 956 3463 1253 3523 
Q 1550 3584 1831 3584 
Q 2591 3584 2966 3190 
Q 3341 2797 3341 1997 
z
" transform="scale(0.015625)"/>
      <path id="DejaVuSans-56" d="M 2834 3397 
L 2834 2853 
Q 2591 2978 2328 3040 
Q 2066 3103 1784 3103 
Q 1356 3103 1142 2972 
Q 928 2841 928 2578 
Q 928 2378 1081 2264 
Q 1234 2150 1697 2047 
L 1894 2003 
Q 2506 1872 2764 1633 
Q 3022 1394 3022 966 
Q 3022 478 2636 193 
Q 2250 -91 1575 -91 
Q 1294 -91 989 -36 
Q 684 19 347 128 
L 347 722 
Q 666 556 975 473 
Q 1284 391 1588 391 
Q 1994 391 2212 530 
Q 2431 669 2431 922 
Q 2431 1156 2273 1281 
Q 2116 1406 1581 1522 
L 1381 1569 
Q 847 1681 609 1914 
Q 372 2147 372 2553 
Q 372 3047 722 3315 
Q 1072 3584 1716 3584 
Q 2034 3584 2315 3537 
Q 2597 3491 2834 3397 
z
" transform="scale(0.015625)"/>
      <path id="DejaVuSans-5d" d="M 353 3500 
L 3084 3500 
L 3084 2975 
L 922 459 
L 3084 459 
L 3084 0 
L 275 0 
L 275 525 
L 2438 3041 
L 353 3041 
L 353 3500 
z
" transform="scale(0.015625)"/>
      <path id="DejaVuSans-51" d="M 3513 2113 
L 3513 0 
L 2938 0 
L 2938 2094 
Q 2938 2591 2744 2837 
Q 2550 3084 2163 3084 
Q 1697 3084 1428 2787 
Q 1159 2491 1159 1978 
L 1159 0 
L 581 0 
L 581 3500 
L 1159 3500 
L 1159 2956 
Q 1366 3272 1645 3428 
Q 1925 3584 2291 3584 
Q 2894 3584 3203 3211 
Q 3513 2838 3513 2113 
z
" transform="scale(0.015625)"/>
      <path id="DejaVuSans-a3" d="M 2194 1759 
Q 1497 1759 1228 1600 
Q 959 1441 959 1056 
Q 959 750 1161 570 
Q 1363 391 1709 391 
Q 2188 391 2477 730 
Q 2766 1069 2766 1631 
L 2766 1759 
L 2194 1759 
z
M 3341 1997 
L 3341 0 
L 2766 0 
L 2766 531 
Q 2569 213 2275 61 
Q 1981 -91 1556 -91 
Q 1019 -91 701 211 
Q 384 513 384 1019 
Q 384 1609 779 1909 
Q 1175 2209 1959 2209 
L 2766 2209 
L 2766 2266 
Q 2766 2663 2505 2880 
Q 2244 3097 1772 3097 
Q 1472 3097 1187 3025 
Q 903 2953 641 2809 
L 641 3341 
Q 956 3463 1253 3523 
Q 1550 3584 1831 3584 
Q 2591 3584 2966 3190 
Q 3341 2797 3341 1997 
z
M 2290 5119 
L 2912 5119 
L 1894 3944 
L 1415 3944 
L 2290 5119 
z
" transform="scale(0.015625)"/>
      <path id="DejaVuSans-b5" d="M 1959 3097 
Q 1497 3097 1228 2736 
Q 959 2375 959 1747 
Q 959 1119 1226 758 
Q 1494 397 1959 397 
Q 2419 397 2687 759 
Q 2956 1122 2956 1747 
Q 2956 2369 2687 2733 
Q 2419 3097 1959 3097 
z
M 1959 3584 
Q 2709 3584 3137 3096 
Q 3566 2609 3566 1747 
Q 3566 888 3137 398 
Q 2709 -91 1959 -91 
Q 1206 -91 779 398 
Q 353 888 353 1747 
Q 353 2609 779 3096 
Q 1206 3584 1959 3584 
z
M 2393 5119 
L 3015 5119 
L 1997 3944 
L 1518 3944 
L 2393 5119 
z
" transform="scale(0.015625)"/>
     </defs>
     <use xlink:href="#DejaVuSans-29"/>
     <use xlink:href="#DejaVuSans-48" transform="translate(52.046875 0)"/>
     <use xlink:href="#DejaVuSans-4f" transform="translate(113.578125 0)"/>
     <use xlink:href="#DejaVuSans-4b" transform="translate(141.359375 0)"/>
     <use xlink:href="#DejaVuSans-44" transform="translate(204.734375 0)"/>
     <use xlink:href="#DejaVuSans-56" transform="translate(266.015625 0)"/>
     <use xlink:href="#DejaVuSans-5d" transform="translate(318.109375 0)"/>
     <use xlink:href="#DejaVuSans-51" transform="translate(370.59375 0)"/>
     <use xlink:href="#DejaVuSans-a3" transform="translate(433.96875 0)"/>
     <use xlink:href="#DejaVuSans-4f" transform="translate(495.25 0)"/>
     <use xlink:href="#DejaVuSans-b5" transform="translate(523.03125 0)"/>
    </g>
   </g>
   <g id="patch_7">
    <path d="M 275.598 103.296 
C 298.683399 103.296 320.826389 100.251335 337.150231 94.832558 
C 353.474074 89.41378 362.646 82.063309 362.646 74.4 
C 362.646 66.736691 353.474074 59.38622 337.150231 53.967442 
C 320.826389 48.548665 298.683399 45.504 275.598 45.504 
C 252.512601 45.504 230.369611 48.548665 214.045769 53.967442 
C 197.721926 59.38622 188.55 66.736691 188.55 74.4 
C 188.55 82.063309 197.721926 89.41378 214.045769 94.832558 
C 230.369611 100.251335 252.512601 103.296 275.598 103.296 
z
" clip-path="url(#pb0d1080d6f)" style="fill: #e0f2fe; stroke: #2563eb; stroke-width: 1.6; stroke-linejoin: miter"/>
   </g>
   <g id="patch_8">
    <path d="M 275.598 170.496 
C 298.683399 170.496 320.826389 167.451335 337.150231 162.032558 
C 353.474074 156.61378 362.646 149.263309 362.646 141.6 
C 362.646 133.936691 353.474074 126.58622 337.150231 121.167442 
C 320.826389 115.748665 298.683399 112.704 275.598 112.704 
C 252.512601 112.704 230.369611 115.748665 214.045769 121.167442 
C 197.721926 126.58622 188.55 133.936691 188.55 141.6 
C 188.55 149.263309 197.721926 156.61378 214.045769 162.032558 
C 230.369611 167.451335 252.512601 170.496 275.598 170.496 
z
" clip-path="url(#pb0d1080d6f)" style="fill: #e0f2fe; stroke: #2563eb; stroke-width: 1.6; stroke-linejoin: miter"/>
   </g>
   <g id="patch_9">
    <path d="M 275.598 237.696 
C 298.683399 237.696 320.826389 234.651335 337.150231 229.232558 
C 353.474074 223.81378 362.646 216.463309 362.646 208.8 
C 362.646 201.136691 353.474074 193.78622 337.150231 188.367442 
C 320.826389 182.948665 298.683399 179.904 275.598 179.904 
C 252.512601 179.904 230.369611 182.948665 214.045769 188.367442 
C 197.721926 193.78622 188.55 201.136691 188.55 208.8 
C 188.55 216.463309 197.721926 223.81378 214.045769 229.232558 
C 230.369611 234.651335 252.512601 237.696 275.598 237.696 
z
" clip-path="url(#pb0d1080d6f)" style="fill: #e0f2fe; stroke: #2563eb; stroke-width: 1.6; stroke-linejoin: miter"/>
   </g>
   <g id="patch_10">
    <path d="M 275.598 304.896 
C 298.683399 304.896 320.826389 301.851335 337.150231 296.432558 
C 353.474074 291.01378 362.646 283.663309 362.646 276 
C 362.646 268.336691 353.474074 260.98622 337.150231 255.567442 
C 320.826389 250.148665 298.683399 247.104 275.598 247.104 
C 252.512601 247.104 230.369611 250.148665 214.045769 255.567442 
C 197.721926 260.98622 188.55 268.336691 188.55 276 
C 188.55 283.663309 197.721926 291.01378 214.045769 296.432558 
C 230.369611 301.851335 252.512601 304.896 275.598 304.896 
z
" clip-path="url(#pb0d1080d6f)" style="fill: #e0f2fe; stroke: #2563eb; stroke-width: 1.6; stroke-linejoin: miter"/>
   </g>
   <g id="patch_11">
    <path d="M 275.598 372.096 
C 298.683399 372.096 320.826389 369.051335 337.150231 363.632558 
C 353.474074 358.21378 362.646 350.863309 362.646 343.2 
C 362.646 335.536691 353.474074 328.18622 337.150231 322.767442 
C 320.826389 317.348665 298.683399 314.304 275.598 314.304 
C 252.512601 314.304 230.369611 317.348665 214.045769 322.767442 
C 197.721926 328.18622 188.55 335.536691 188.55 343.2 
C 188.55 350.863309 197.721926 358.21378 214.045769 363.632558 
C 230.369611 369.051335 252.512601 372.096 275.598 372.096 
z
" clip-path="url(#pb0d1080d6f)" style="fill: #e0f2fe; stroke: #2563eb; stroke-width: 1.6; stroke-linejoin: miter"/>
   </g>
   <g id="patch_12">
    <path d="M 275.598 439.296 
C 298.683399 439.296 320.826389 436.251335 337.150231 430.832558 
C 353.474074 425.41378 362.646 418.063309 362.646 410.4 
C 362.646 402.736691 353.474074 395.38622 337.150231 389.967442 
C 320.826389 384.548665 298.683399 381.504 275.598 381.504 
C 252.512601 381.504 230.369611 384.548665 214.045769 389.967442 
C 197.721926 395.38622 188.55 402.736691 188.55 410.4 
C 188.55 418.063309 197.721926 425.41378 214.045769 430.832558 
C 230.369611 436.251335 252.512601 439.296 275.598 439.296 
z
" clip-path="url(#pb0d1080d6f)" style="fill: #e0f2fe; stroke: #2563eb; stroke-width: 1.6; stroke-linejoin: miter"/>
   </g>
   <g id="text_3">
    <!-- Az elemzés lépései -->
    <g style="fill: #64748b" transform="translate(518.125555 80.977754) scale(0.115 -0.115)">
     <defs>
      <path id="DejaVuSans-Oblique-24" d="M 2356 4666 
L 3072 4666 
L 3938 0 
L 3278 0 
L 3084 1197 
L 984 1197 
L 325 0 
L -341 0 
L 2356 4666 
z
M 2584 4044 
L 1275 1722 
L 2988 1722 
L 2584 4044 
z
" transform="scale(0.015625)"/>
      <path id="DejaVuSans-Oblique-5d" d="M 744 3500 
L 3475 3500 
L 3372 2975 
L 738 459 
L 2913 459 
L 2822 0 
L -19 0 
L 84 525 
L 2719 3041 
L 653 3041 
L 744 3500 
z
" transform="scale(0.015625)"/>
      <path id="DejaVuSans-Oblique-3" transform="scale(0.015625)"/>
      <path id="DejaVuSans-Oblique-48" d="M 3078 2063 
Q 3088 2113 3092 2166 
Q 3097 2219 3097 2272 
Q 3097 2653 2873 2875 
Q 2650 3097 2266 3097 
Q 1838 3097 1509 2826 
Q 1181 2556 1013 2059 
L 3078 2063 
z
M 3578 1613 
L 903 1613 
Q 884 1494 878 1425 
Q 872 1356 872 1306 
Q 872 872 1139 634 
Q 1406 397 1894 397 
Q 2269 397 2603 481 
Q 2938 566 3225 728 
L 3116 159 
Q 2806 34 2476 -28 
Q 2147 -91 1806 -91 
Q 1078 -91 686 257 
Q 294 606 294 1247 
Q 294 1794 489 2264 
Q 684 2734 1063 3103 
Q 1306 3334 1642 3459 
Q 1978 3584 2356 3584 
Q 2950 3584 3301 3228 
Q 3653 2872 3653 2272 
Q 3653 2128 3634 1964 
Q 3616 1800 3578 1613 
z
" transform="scale(0.015625)"/>
      <path id="DejaVuSans-Oblique-4f" d="M 1172 4863 
L 1747 4863 
L 800 0 
L 225 0 
L 1172 4863 
z
" transform="scale(0.015625)"/>
      <path id="DejaVuSans-Oblique-50" d="M 5747 2113 
L 5338 0 
L 4763 0 
L 5166 2094 
Q 5191 2228 5203 2325 
Q 5216 2422 5216 2491 
Q 5216 2772 5059 2928 
Q 4903 3084 4622 3084 
Q 4203 3084 3875 2770 
Q 3547 2456 3450 1953 
L 3066 0 
L 2491 0 
L 2900 2094 
Q 2925 2209 2937 2307 
Q 2950 2406 2950 2484 
Q 2950 2769 2794 2926 
Q 2638 3084 2363 3084 
Q 1938 3084 1609 2770 
Q 1281 2456 1184 1953 
L 800 0 
L 225 0 
L 909 3500 
L 1484 3500 
L 1375 2956 
Q 1609 3263 1923 3423 
Q 2238 3584 2597 3584 
Q 2978 3584 3223 3384 
Q 3469 3184 3519 2828 
Q 3781 3197 4126 3390 
Q 4472 3584 4856 3584 
Q 5306 3584 5551 3325 
Q 5797 3066 5797 2591 
Q 5797 2488 5784 2364 
Q 5772 2241 5747 2113 
z
" transform="scale(0.015625)"/>
      <path id="DejaVuSans-Oblique-ab" d="M 3078 2063 
Q 3088 2113 3092 2166 
Q 3097 2219 3097 2272 
Q 3097 2653 2873 2875 
Q 2650 3097 2266 3097 
Q 1838 3097 1509 2826 
Q 1181 2556 1013 2059 
L 3078 2063 
z
M 3578 1613 
L 903 1613 
Q 884 1494 878 1425 
Q 872 1356 872 1306 
Q 872 872 1139 634 
Q 1406 397 1894 397 
Q 2269 397 2603 481 
Q 2938 566 3225 728 
L 3116 159 
Q 2806 34 2476 -28 
Q 2147 -91 1806 -91 
Q 1078 -91 686 257 
Q 294 606 294 1247 
Q 294 1794 489 2264 
Q 684 2734 1063 3103 
Q 1306 3334 1642 3459 
Q 1978 3584 2356 3584 
Q 2950 3584 3301 3228 
Q 3653 2872 3653 2272 
Q 3653 2128 3634 1964 
Q 3616 1800 3578 1613 
z
M 3066 5119 
L 3688 5119 
L 2441 3944 
L 1960 3944 
L 3066 5119 
z
" transform="scale(0.015625)"/>
      <path id="DejaVuSans-Oblique-56" d="M 3200 3397 
L 3091 2853 
Q 2863 2978 2609 3040 
Q 2356 3103 2088 3103 
Q 1634 3103 1373 2948 
Q 1113 2794 1113 2528 
Q 1113 2219 1719 2053 
Q 1766 2041 1788 2034 
L 1972 1978 
Q 2547 1819 2739 1644 
Q 2931 1469 2931 1166 
Q 2931 609 2489 259 
Q 2047 -91 1331 -91 
Q 1053 -91 747 -37 
Q 441 16 72 128 
L 184 722 
Q 500 559 806 475 
Q 1113 391 1394 391 
Q 1816 391 2080 572 
Q 2344 753 2344 1031 
Q 2344 1331 1650 1516 
L 1591 1531 
L 1394 1581 
Q 956 1697 753 1886 
Q 550 2075 550 2369 
Q 550 2928 970 3256 
Q 1391 3584 2113 3584 
Q 2397 3584 2667 3537 
Q 2938 3491 3200 3397 
z
" transform="scale(0.015625)"/>
      <path id="DejaVuSans-Oblique-53" d="M 3175 2156 
Q 3175 2616 2975 2859 
Q 2775 3103 2400 3103 
Q 2144 3103 1911 2972 
Q 1678 2841 1497 2591 
Q 1319 2344 1212 1994 
Q 1106 1644 1106 1300 
Q 1106 863 1306 627 
Q 1506 391 1875 391 
Q 2147 391 2380 519 
Q 2613 647 2778 891 
Q 2956 1147 3065 1494 
Q 3175 1841 3175 2156 
z
M 1394 2969 
Q 1625 3272 1939 3428 
Q 2253 3584 2638 3584 
Q 3175 3584 3472 3232 
Q 3769 2881 3769 2247 
Q 3769 1728 3584 1258 
Q 3400 788 3053 416 
Q 2822 169 2531 39 
Q 2241 -91 1919 -91 
Q 1547 -91 1294 64 
Q 1041 219 916 525 
L 556 -1331 
L -19 -1331 
L 922 3500 
L 1497 3500 
L 1394 2969 
z
" transform="scale(0.015625)"/>
      <path id="DejaVuSans-Oblique-4c" d="M 1172 4863 
L 1747 4863 
L 1606 4134 
L 1031 4134 
L 1172 4863 
z
M 909 3500 
L 1484 3500 
L 800 0 
L 225 0 
L 909 3500 
z
" transform="scale(0.015625)"/>
     </defs>
     <use xlink:href="#DejaVuSans-Oblique-24"/>
     <use xlink:href="#DejaVuSans-Oblique-5d" transform="translate(68.40625 0)"/>
     <use xlink:href="#DejaVuSans-Oblique-3" transform="translate(120.890625 0)"/>
     <use xlink:href="#DejaVuSans-Oblique-48" transform="translate(152.671875 0)"/>
     <use xlink:href="#DejaVuSans-Oblique-4f" transform="translate(214.203125 0)"/>
     <use xlink:href="#DejaVuSans-Oblique-48" transform="translate(241.984375 0)"/>
     <use xlink:href="#DejaVuSans-Oblique-50" transform="translate(303.515625 0)"/>
     <use xlink:href="#DejaVuSans-Oblique-5d" transform="translate(400.921875 0)"/>
     <use xlink:href="#DejaVuSans-Oblique-ab" transform="translate(453.40625 0)"/>
     <use xlink:href="#DejaVuSans-Oblique-56" transform="translate(514.9375 0)"/>
     <use xlink:href="#DejaVuSans-Oblique-3" transform="translate(567.03125 0)"/>
     <use xlink:href="#DejaVuSans-Oblique-4f" transform="translate(598.8125 0)"/>
     <use xlink:href="#DejaVuSans-Oblique-ab" transform="translate(626.59375 0)"/>
     <use xlink:href="#DejaVuSans-Oblique-53" transform="translate(688.125 0)"/>
     <use xlink:href="#DejaVuSans-Oblique-ab" transform="translate(751.609375 0)"/>
     <use xlink:href="#DejaVuSans-Oblique-56" transform="translate(813.140625 0)"/>
     <use xlink:href="#DejaVuSans-Oblique-48" transform="translate(865.234375 0)"/>
     <use xlink:href="#DejaVuSans-Oblique-4c" transform="translate(926.765625 0)"/>
    </g>
   </g>
   <g id="patch_13">
    <path d="M 573.012 155.712 
C 598.983074 155.712 623.893937 152.808947 642.25826 147.642206 
C 660.622583 142.475465 670.941 135.466876 670.941 128.16 
C 670.941 120.853124 660.622583 113.844535 642.25826 108.677794 
C 623.893937 103.511053 598.983074 100.608 573.012 100.608 
C 547.040926 100.608 522.130063 103.511053 503.76574 108.677794 
C 485.401417 113.844535 475.083 120.853124 475.083 128.16 
C 475.083 135.466876 485.401417 142.475465 503.76574 147.642206 
C 522.130063 152.808947 547.040926 155.712 573.012 155.712 
z
" clip-path="url(#pb0d1080d6f)" style="fill: #e0f2fe; stroke: #2563eb; stroke-width: 1.6; stroke-linejoin: miter"/>
   </g>
   <g id="patch_14">
    <path d="M 573.012 236.352 
C 598.983074 236.352 623.893937 233.448947 642.25826 228.282206 
C 660.622583 223.115465 670.941 216.106876 670.941 208.8 
C 670.941 201.493124 660.622583 194.484535 642.25826 189.317794 
C 623.893937 184.151053 598.983074 181.248 573.012 181.248 
C 547.040926 181.248 522.130063 184.151053 503.76574 189.317794 
C 485.401417 194.484535 475.083 201.493124 475.083 208.8 
C 475.083 216.106876 485.401417 223.115465 503.76574 228.282206 
C 522.130063 233.448947 547.040926 236.352 573.012 236.352 
z
" clip-path="url(#pb0d1080d6f)" style="fill: #e0f2fe; stroke: #2563eb; stroke-width: 1.6; stroke-linejoin: miter"/>
   </g>
   <g id="patch_15">
    <path d="M 573.012 316.992 
C 598.983074 316.992 623.893937 314.088947 642.25826 308.922206 
C 660.622583 303.755465 670.941 296.746876 670.941 289.44 
C 670.941 282.133124 660.622583 275.124535 642.25826 269.957794 
C 623.893937 264.791053 598.983074 261.888 573.012 261.888 
C 547.040926 261.888 522.130063 264.791053 503.76574 269.957794 
C 485.401417 275.124535 475.083 282.133124 475.083 289.44 
C 475.083 296.746876 485.401417 303.755465 503.76574 308.922206 
C 522.130063 314.088947 547.040926 316.992 573.012 316.992 
z
" clip-path="url(#pb0d1080d6f)" style="fill: #e0f2fe; stroke: #2563eb; stroke-width: 1.6; stroke-linejoin: miter"/>
   </g>
   <g id="text_4">
    <!-- Bejelentkezés -->
    <g style="fill: #1f2933" transform="translate(233.998312 70.316016) scale(0.12 -0.12)">
     <defs>
      <path id="DejaVuSans-25" d="M 1259 2228 
L 1259 519 
L 2272 519 
Q 2781 519 3026 730 
Q 3272 941 3272 1375 
Q 3272 1813 3026 2020 
Q 2781 2228 2272 2228 
L 1259 2228 
z
M 1259 4147 
L 1259 2741 
L 2194 2741 
Q 2656 2741 2882 2914 
Q 3109 3088 3109 3444 
Q 3109 3797 2882 3972 
Q 2656 4147 2194 4147 
L 1259 4147 
z
M 628 4666 
L 2241 4666 
Q 2963 4666 3353 4366 
Q 3744 4066 3744 3513 
Q 3744 3084 3544 2831 
Q 3344 2578 2956 2516 
Q 3422 2416 3680 2098 
Q 3938 1781 3938 1306 
Q 3938 681 3513 340 
Q 3088 0 2303 0 
L 628 0 
L 628 4666 
z
" transform="scale(0.015625)"/>
      <path id="DejaVuSans-4d" d="M 603 3500 
L 1178 3500 
L 1178 -63 
Q 1178 -731 923 -1031 
Q 669 -1331 103 -1331 
L -116 -1331 
L -116 -844 
L 38 -844 
Q 366 -844 484 -692 
Q 603 -541 603 -63 
L 603 3500 
z
M 603 4863 
L 1178 4863 
L 1178 4134 
L 603 4134 
L 603 4863 
z
" transform="scale(0.015625)"/>
      <path id="DejaVuSans-57" d="M 1172 4494 
L 1172 3500 
L 2356 3500 
L 2356 3053 
L 1172 3053 
L 1172 1153 
Q 1172 725 1289 603 
Q 1406 481 1766 481 
L 2356 481 
L 2356 0 
L 1766 0 
Q 1100 0 847 248 
Q 594 497 594 1153 
L 594 3053 
L 172 3053 
L 172 3500 
L 594 3500 
L 594 4494 
L 1172 4494 
z
" transform="scale(0.015625)"/>
      <path id="DejaVuSans-4e" d="M 581 4863 
L 1159 4863 
L 1159 1991 
L 2875 3500 
L 3609 3500 
L 1753 1863 
L 3688 0 
L 2938 0 
L 1159 1709 
L 1159 0 
L 581 0 
L 581 4863 
z
" transform="scale(0.015625)"/>
      <path id="DejaVuSans-ab" d="M 3597 1894 
L 3597 1613 
L 953 1613 
Q 991 1019 1311 708 
Q 1631 397 2203 397 
Q 2534 397 2845 478 
Q 3156 559 3463 722 
L 3463 178 
Q 3153 47 2828 -22 
Q 2503 -91 2169 -91 
Q 1331 -91 842 396 
Q 353 884 353 1716 
Q 353 2575 817 3079 
Q 1281 3584 2069 3584 
Q 2775 3584 3186 3129 
Q 3597 2675 3597 1894 
z
M 3022 2063 
Q 3016 2534 2758 2815 
Q 2500 3097 2075 3097 
Q 1594 3097 1305 2825 
Q 1016 2553 972 2059 
L 3022 2063 
z
M 2468 5119 
L 3090 5119 
L 2072 3944 
L 1593 3944 
L 2468 5119 
z
" transform="scale(0.015625)"/>
     </defs>
     <use xlink:href="#DejaVuSans-25"/>
     <use xlink:href="#DejaVuSans-48" transform="translate(68.609375 0)"/>
     <use xlink:href="#DejaVuSans-4d" transform="translate(130.140625 0)"/>
     <use xlink:href="#DejaVuSans-48" transform="translate(157.921875 0)"/>
     <use xlink:href="#DejaVuSans-4f" transform="translate(219.453125 0)"/>
     <use xlink:href="#DejaVuSans-48" transform="translate(247.234375 0)"/>
     <use xlink:href="#DejaVuSans-51" transform="translate(308.765625 0)"/>
     <use xlink:href="#DejaVuSans-57" transform="translate(372.140625 0)"/>
     <use xlink:href="#DejaVuSans-4e" transform="translate(411.34375 0)"/>
     <use xlink:href="#DejaVuSans-48" transform="translate(465.6875 0)"/>
     <use xlink:href="#DejaVuSans-5d" transform="translate(527.21875 0)"/>
     <use xlink:href="#DejaVuSans-ab" transform="translate(579.703125 0)"/>
     <use xlink:href="#DejaVuSans-56" transform="translate(641.234375 0)"/>
    </g>
    <!-- (Google-fiók) -->
    <g style="fill: #1f2933" transform="translate(236.667375 85.199297) scale(0.12 -0.12)">
     <defs>
      <path id="DejaVuSans-b" d="M 1984 4856 
Q 1566 4138 1362 3434 
Q 1159 2731 1159 2009 
Q 1159 1288 1364 580 
Q 1569 -128 1984 -844 
L 1484 -844 
Q 1016 -109 783 600 
Q 550 1309 550 2009 
Q 550 2706 781 3412 
Q 1013 4119 1484 4856 
L 1984 4856 
z
" transform="scale(0.015625)"/>
      <path id="DejaVuSans-2a" d="M 3809 666 
L 3809 1919 
L 2778 1919 
L 2778 2438 
L 4434 2438 
L 4434 434 
Q 4069 175 3628 42 
Q 3188 -91 2688 -91 
Q 1594 -91 976 548 
Q 359 1188 359 2328 
Q 359 3472 976 4111 
Q 1594 4750 2688 4750 
Q 3144 4750 3555 4637 
Q 3966 4525 4313 4306 
L 4313 3634 
Q 3963 3931 3569 4081 
Q 3175 4231 2741 4231 
Q 1884 4231 1454 3753 
Q 1025 3275 1025 2328 
Q 1025 1384 1454 906 
Q 1884 428 2741 428 
Q 3075 428 3337 486 
Q 3600 544 3809 666 
z
" transform="scale(0.015625)"/>
      <path id="DejaVuSans-52" d="M 1959 3097 
Q 1497 3097 1228 2736 
Q 959 2375 959 1747 
Q 959 1119 1226 758 
Q 1494 397 1959 397 
Q 2419 397 2687 759 
Q 2956 1122 2956 1747 
Q 2956 2369 2687 2733 
Q 2419 3097 1959 3097 
z
M 1959 3584 
Q 2709 3584 3137 3096 
Q 3566 2609 3566 1747 
Q 3566 888 3137 398 
Q 2709 -91 1959 -91 
Q 1206 -91 779 398 
Q 353 888 353 1747 
Q 353 2609 779 3096 
Q 1206 3584 1959 3584 
z
" transform="scale(0.015625)"/>
      <path id="DejaVuSans-4a" d="M 2906 1791 
Q 2906 2416 2648 2759 
Q 2391 3103 1925 3103 
Q 1463 3103 1205 2759 
Q 947 2416 947 1791 
Q 947 1169 1205 825 
Q 1463 481 1925 481 
Q 2391 481 2648 825 
Q 2906 1169 2906 1791 
z
M 3481 434 
Q 3481 -459 3084 -895 
Q 2688 -1331 1869 -1331 
Q 1566 -1331 1297 -1286 
Q 1028 -1241 775 -1147 
L 775 -588 
Q 1028 -725 1275 -790 
Q 1522 -856 1778 -856 
Q 2344 -856 2625 -561 
Q 2906 -266 2906 331 
L 2906 616 
Q 2728 306 2450 153 
Q 2172 0 1784 0 
Q 1141 0 747 490 
Q 353 981 353 1791 
Q 353 2603 747 3093 
Q 1141 3584 1784 3584 
Q 2172 3584 2450 3431 
Q 2728 3278 2906 2969 
L 2906 3500 
L 3481 3500 
L 3481 434 
z
" transform="scale(0.015625)"/>
      <path id="DejaVuSans-10" d="M 313 2009 
L 1997 2009 
L 1997 1497 
L 313 1497 
L 313 2009 
z
" transform="scale(0.015625)"/>
      <path id="DejaVuSans-13af" d="M 3431 3500 
L 3431 0 
L 2853 0 
L 2853 3053 
L 1275 3053 
L 1275 0 
L 697 0 
L 697 3053 
L 147 3053 
L 147 3500 
L 697 3500 
L 697 3744 
Q 697 4316 967 4589 
Q 1238 4863 1797 4863 
L 2375 4863 
L 2375 4384 
L 1825 4384 
Q 1516 4384 1395 4259 
Q 1275 4134 1275 3809 
L 1275 3500 
L 3431 3500 
z
M 2853 4856 
L 3431 4856 
L 3431 4128 
L 2853 4128 
L 2853 4856 
z
" transform="scale(0.015625)"/>
      <path id="DejaVuSans-c" d="M 513 4856 
L 1013 4856 
Q 1481 4119 1714 3412 
Q 1947 2706 1947 2009 
Q 1947 1309 1714 600 
Q 1481 -109 1013 -844 
L 513 -844 
Q 928 -128 1133 580 
Q 1338 1288 1338 2009 
Q 1338 2731 1133 3434 
Q 928 4138 513 4856 
z
" transform="scale(0.015625)"/>
     </defs>
     <use xlink:href="#DejaVuSans-b"/>
     <use xlink:href="#DejaVuSans-2a" transform="translate(39.015625 0)"/>
     <use xlink:href="#DejaVuSans-52" transform="translate(116.5 0)"/>
     <use xlink:href="#DejaVuSans-52" transform="translate(177.6875 0)"/>
     <use xlink:href="#DejaVuSans-4a" transform="translate(238.875 0)"/>
     <use xlink:href="#DejaVuSans-4f" transform="translate(302.359375 0)"/>
     <use xlink:href="#DejaVuSans-48" transform="translate(330.140625 0)"/>
     <use xlink:href="#DejaVuSans-10" transform="translate(391.671875 0)"/>
     <use xlink:href="#DejaVuSans-13af" transform="translate(427.75 0)"/>
     <use xlink:href="#DejaVuSans-b5" transform="translate(490.734375 0)"/>
     <use xlink:href="#DejaVuSans-4e" transform="translate(551.921875 0)"/>
     <use xlink:href="#DejaVuSans-c" transform="translate(609.828125 0)"/>
    </g>
   </g>
   <g id="text_5">
    <!-- Kép feltöltése / -->
    <g style="fill: #1f2933" transform="translate(230.603625 137.516016) scale(0.12 -0.12)">
     <defs>
      <path id="DejaVuSans-2e" d="M 628 4666 
L 1259 4666 
L 1259 2694 
L 3353 4666 
L 4166 4666 
L 1850 2491 
L 4331 0 
L 3500 0 
L 1259 2247 
L 1259 0 
L 628 0 
L 628 4666 
z
" transform="scale(0.015625)"/>
      <path id="DejaVuSans-53" d="M 1159 525 
L 1159 -1331 
L 581 -1331 
L 581 3500 
L 1159 3500 
L 1159 2969 
Q 1341 3281 1617 3432 
Q 1894 3584 2278 3584 
Q 2916 3584 3314 3078 
Q 3713 2572 3713 1747 
Q 3713 922 3314 415 
Q 2916 -91 2278 -91 
Q 1894 -91 1617 61 
Q 1341 213 1159 525 
z
M 3116 1747 
Q 3116 2381 2855 2742 
Q 2594 3103 2138 3103 
Q 1681 3103 1420 2742 
Q 1159 2381 1159 1747 
Q 1159 1113 1420 752 
Q 1681 391 2138 391 
Q 2594 391 2855 752 
Q 3116 1113 3116 1747 
z
" transform="scale(0.015625)"/>
      <path id="DejaVuSans-3" transform="scale(0.015625)"/>
      <path id="DejaVuSans-49" d="M 2375 4863 
L 2375 4384 
L 1825 4384 
Q 1516 4384 1395 4259 
Q 1275 4134 1275 3809 
L 1275 3500 
L 2222 3500 
L 2222 3053 
L 1275 3053 
L 1275 0 
L 697 0 
L 697 3053 
L 147 3053 
L 147 3500 
L 697 3500 
L 697 3744 
Q 697 4328 969 4595 
Q 1241 4863 1831 4863 
L 2375 4863 
z
" transform="scale(0.015625)"/>
      <path id="DejaVuSans-b8" d="M 1959 3097 
Q 1497 3097 1228 2736 
Q 959 2375 959 1747 
Q 959 1119 1226 758 
Q 1494 397 1959 397 
Q 2419 397 2687 759 
Q 2956 1122 2956 1747 
Q 2956 2369 2687 2733 
Q 2419 3097 1959 3097 
z
M 1959 3584 
Q 2709 3584 3137 3096 
Q 3566 2609 3566 1747 
Q 3566 888 3137 398 
Q 2709 -91 1959 -91 
Q 1206 -91 779 398 
Q 353 888 353 1747 
Q 353 2609 779 3096 
Q 1206 3584 1959 3584 
z
M 2253 4850 
L 2887 4850 
L 2887 4219 
L 2253 4219 
L 2253 4850 
z
M 1031 4850 
L 1665 4850 
L 1665 4219 
L 1031 4219 
L 1031 4850 
z
" transform="scale(0.015625)"/>
      <path id="DejaVuSans-12" d="M 1625 4666 
L 2156 4666 
L 531 -594 
L 0 -594 
L 1625 4666 
z
" transform="scale(0.015625)"/>
     </defs>
     <use xlink:href="#DejaVuSans-2e"/>
     <use xlink:href="#DejaVuSans-ab" transform="translate(60.59375 0)"/>
     <use xlink:href="#DejaVuSans-53" transform="translate(122.125 0)"/>
     <use xlink:href="#DejaVuSans-3" transform="translate(185.609375 0)"/>
     <use xlink:href="#DejaVuSans-49" transform="translate(217.390625 0)"/>
     <use xlink:href="#DejaVuSans-48" transform="translate(252.59375 0)"/>
     <use xlink:href="#DejaVuSans-4f" transform="translate(314.125 0)"/>
     <use xlink:href="#DejaVuSans-57" transform="translate(341.90625 0)"/>
     <use xlink:href="#DejaVuSans-b8" transform="translate(381.109375 0)"/>
     <use xlink:href="#DejaVuSans-4f" transform="translate(442.296875 0)"/>
     <use xlink:href="#DejaVuSans-57" transform="translate(470.078125 0)"/>
     <use xlink:href="#DejaVuSans-ab" transform="translate(509.28125 0)"/>
     <use xlink:href="#DejaVuSans-56" transform="translate(570.8125 0)"/>
     <use xlink:href="#DejaVuSans-48" transform="translate(622.90625 0)"/>
     <use xlink:href="#DejaVuSans-3" transform="translate(684.4375 0)"/>
     <use xlink:href="#DejaVuSans-12" transform="translate(716.21875 0)"/>
    </g>
    <!-- fotó készítése -->
    <g style="fill: #1f2933" transform="translate(234.128625 152.399297) scale(0.12 -0.12)">
     <defs>
      <path id="DejaVuSans-af" d="M 1325 5119 
L 1947 5119 
L 929 3944 
L 450 3944 
L 1325 5119 
z
M 603 3500 
L 1178 3500 
L 1178 0 
L 603 0 
L 603 3500 
z
M 891 3584 
L 891 3584 
z
" transform="scale(0.015625)"/>
     </defs>
     <use xlink:href="#DejaVuSans-49"/>
     <use xlink:href="#DejaVuSans-52" transform="translate(35.203125 0)"/>
     <use xlink:href="#DejaVuSans-57" transform="translate(96.390625 0)"/>
     <use xlink:href="#DejaVuSans-b5" transform="translate(135.59375 0)"/>
     <use xlink:href="#DejaVuSans-3" transform="translate(196.78125 0)"/>
     <use xlink:href="#DejaVuSans-4e" transform="translate(228.5625 0)"/>
     <use xlink:href="#DejaVuSans-ab" transform="translate(282.90625 0)"/>
     <use xlink:href="#DejaVuSans-56" transform="translate(344.4375 0)"/>
     <use xlink:href="#DejaVuSans-5d" transform="translate(396.53125 0)"/>
     <use xlink:href="#DejaVuSans-af" transform="translate(449.015625 0)"/>
     <use xlink:href="#DejaVuSans-57" transform="translate(476.796875 0)"/>
     <use xlink:href="#DejaVuSans-ab" transform="translate(516 0)"/>
     <use xlink:href="#DejaVuSans-56" transform="translate(577.53125 0)"/>
     <use xlink:href="#DejaVuSans-48" transform="translate(629.625 0)"/>
    </g>
   </g>
   <g id="text_6">
    <!-- Elváltozás elemzése -->
    <g style="fill: #1f2933" transform="translate(214.809562 212.157656) scale(0.12 -0.12)">
     <defs>
      <path id="DejaVuSans-28" d="M 628 4666 
L 3578 4666 
L 3578 4134 
L 1259 4134 
L 1259 2753 
L 3481 2753 
L 3481 2222 
L 1259 2222 
L 1259 531 
L 3634 531 
L 3634 0 
L 628 0 
L 628 4666 
z
" transform="scale(0.015625)"/>
      <path id="DejaVuSans-59" d="M 191 3500 
L 800 3500 
L 1894 563 
L 2988 3500 
L 3597 3500 
L 2284 0 
L 1503 0 
L 191 3500 
z
" transform="scale(0.015625)"/>
      <path id="DejaVuSans-50" d="M 3328 2828 
Q 3544 3216 3844 3400 
Q 4144 3584 4550 3584 
Q 5097 3584 5394 3201 
Q 5691 2819 5691 2113 
L 5691 0 
L 5113 0 
L 5113 2094 
Q 5113 2597 4934 2840 
Q 4756 3084 4391 3084 
Q 3944 3084 3684 2787 
Q 3425 2491 3425 1978 
L 3425 0 
L 2847 0 
L 2847 2094 
Q 2847 2600 2669 2842 
Q 2491 3084 2119 3084 
Q 1678 3084 1418 2786 
Q 1159 2488 1159 1978 
L 1159 0 
L 581 0 
L 581 3500 
L 1159 3500 
L 1159 2956 
Q 1356 3278 1631 3431 
Q 1906 3584 2284 3584 
Q 2666 3584 2933 3390 
Q 3200 3197 3328 2828 
z
" transform="scale(0.015625)"/>
     </defs>
     <use xlink:href="#DejaVuSans-28"/>
     <use xlink:href="#DejaVuSans-4f" transform="translate(63.1875 0)"/>
     <use xlink:href="#DejaVuSans-59" transform="translate(90.96875 0)"/>
     <use xlink:href="#DejaVuSans-a3" transform="translate(150.15625 0)"/>
     <use xlink:href="#DejaVuSans-4f" transform="translate(211.4375 0)"/>
     <use xlink:href="#DejaVuSans-57" transform="translate(239.21875 0)"/>
     <use xlink:href="#DejaVuSans-52" transform="translate(278.421875 0)"/>
     <use xlink:href="#DejaVuSans-5d" transform="translate(339.609375 0)"/>
     <use xlink:href="#DejaVuSans-a3" transform="translate(392.09375 0)"/>
     <use xlink:href="#DejaVuSans-56" transform="translate(453.375 0)"/>
     <use xlink:href="#DejaVuSans-3" transform="translate(505.46875 0)"/>
     <use xlink:href="#DejaVuSans-48" transform="translate(537.25 0)"/>
     <use xlink:href="#DejaVuSans-4f" transform="translate(598.78125 0)"/>
     <use xlink:href="#DejaVuSans-48" transform="translate(626.5625 0)"/>
     <use xlink:href="#DejaVuSans-50" transform="translate(688.09375 0)"/>
     <use xlink:href="#DejaVuSans-5d" transform="translate(785.5 0)"/>
     <use xlink:href="#DejaVuSans-ab" transform="translate(837.984375 0)"/>
     <use xlink:href="#DejaVuSans-56" transform="translate(899.515625 0)"/>
     <use xlink:href="#DejaVuSans-48" transform="translate(951.609375 0)"/>
    </g>
   </g>
   <g id="text_7">
    <!-- Kérdés feltevése -->
    <g style="fill: #1f2933" transform="translate(225.799875 271.916016) scale(0.12 -0.12)">
     <defs>
      <path id="DejaVuSans-55" d="M 2631 2963 
Q 2534 3019 2420 3045 
Q 2306 3072 2169 3072 
Q 1681 3072 1420 2755 
Q 1159 2438 1159 1844 
L 1159 0 
L 581 0 
L 581 3500 
L 1159 3500 
L 1159 2956 
Q 1341 3275 1631 3429 
Q 1922 3584 2338 3584 
Q 2397 3584 2469 3576 
Q 2541 3569 2628 3553 
L 2631 2963 
z
" transform="scale(0.015625)"/>
      <path id="DejaVuSans-47" d="M 2906 2969 
L 2906 4863 
L 3481 4863 
L 3481 0 
L 2906 0 
L 2906 525 
Q 2725 213 2448 61 
Q 2172 -91 1784 -91 
Q 1150 -91 751 415 
Q 353 922 353 1747 
Q 353 2572 751 3078 
Q 1150 3584 1784 3584 
Q 2172 3584 2448 3432 
Q 2725 3281 2906 2969 
z
M 947 1747 
Q 947 1113 1208 752 
Q 1469 391 1925 391 
Q 2381 391 2643 752 
Q 2906 1113 2906 1747 
Q 2906 2381 2643 2742 
Q 2381 3103 1925 3103 
Q 1469 3103 1208 2742 
Q 947 2381 947 1747 
z
" transform="scale(0.015625)"/>
     </defs>
     <use xlink:href="#DejaVuSans-2e"/>
     <use xlink:href="#DejaVuSans-ab" transform="translate(60.59375 0)"/>
     <use xlink:href="#DejaVuSans-55" transform="translate(122.125 0)"/>
     <use xlink:href="#DejaVuSans-47" transform="translate(161.484375 0)"/>
     <use xlink:href="#DejaVuSans-ab" transform="translate(224.96875 0)"/>
     <use xlink:href="#DejaVuSans-56" transform="translate(286.5 0)"/>
     <use xlink:href="#DejaVuSans-3" transform="translate(338.59375 0)"/>
     <use xlink:href="#DejaVuSans-49" transform="translate(370.375 0)"/>
     <use xlink:href="#DejaVuSans-48" transform="translate(405.578125 0)"/>
     <use xlink:href="#DejaVuSans-4f" transform="translate(467.109375 0)"/>
     <use xlink:href="#DejaVuSans-57" transform="translate(494.890625 0)"/>
     <use xlink:href="#DejaVuSans-48" transform="translate(534.09375 0)"/>
     <use xlink:href="#DejaVuSans-59" transform="translate(595.625 0)"/>
     <use xlink:href="#DejaVuSans-ab" transform="translate(654.8125 0)"/>
     <use xlink:href="#DejaVuSans-56" transform="translate(716.34375 0)"/>
     <use xlink:href="#DejaVuSans-48" transform="translate(768.4375 0)"/>
    </g>
    <!-- (párbeszéd) -->
    <g style="fill: #1f2933" transform="translate(239.687062 286.799297) scale(0.12 -0.12)">
     <defs>
      <path id="DejaVuSans-45" d="M 3116 1747 
Q 3116 2381 2855 2742 
Q 2594 3103 2138 3103 
Q 1681 3103 1420 2742 
Q 1159 2381 1159 1747 
Q 1159 1113 1420 752 
Q 1681 391 2138 391 
Q 2594 391 2855 752 
Q 3116 1113 3116 1747 
z
M 1159 2969 
Q 1341 3281 1617 3432 
Q 1894 3584 2278 3584 
Q 2916 3584 3314 3078 
Q 3713 2572 3713 1747 
Q 3713 922 3314 415 
Q 2916 -91 2278 -91 
Q 1894 -91 1617 61 
Q 1341 213 1159 525 
L 1159 0 
L 581 0 
L 581 4863 
L 1159 4863 
L 1159 2969 
z
" transform="scale(0.015625)"/>
     </defs>
     <use xlink:href="#DejaVuSans-b"/>
     <use xlink:href="#DejaVuSans-53" transform="translate(39.015625 0)"/>
     <use xlink:href="#DejaVuSans-a3" transform="translate(102.5 0)"/>
     <use xlink:href="#DejaVuSans-55" transform="translate(163.78125 0)"/>
     <use xlink:href="#DejaVuSans-45" transform="translate(204.890625 0)"/>
     <use xlink:href="#DejaVuSans-48" transform="translate(268.375 0)"/>
     <use xlink:href="#DejaVuSans-56" transform="translate(329.90625 0)"/>
     <use xlink:href="#DejaVuSans-5d" transform="translate(382 0)"/>
     <use xlink:href="#DejaVuSans-ab" transform="translate(434.484375 0)"/>
     <use xlink:href="#DejaVuSans-47" transform="translate(496.015625 0)"/>
     <use xlink:href="#DejaVuSans-c" transform="translate(559.5 0)"/>
    </g>
   </g>
   <g id="text_8">
    <!-- Előzmények -->
    <g style="fill: #1f2933" transform="translate(239.263312 339.116016) scale(0.12 -0.12)">
     <defs>
      <path id="DejaVuSans-113" d="M 2888 5119 
L 3444 5119 
L 2669 3944 
L 2247 3944 
L 2888 5119 
z
M 1844 5119 
L 2375 5119 
L 1678 3944 
L 1250 3944 
L 1844 5119 
z
M 1959 3097 
Q 1497 3097 1228 2736 
Q 959 2375 959 1747 
Q 959 1119 1226 758 
Q 1494 397 1959 397 
Q 2419 397 2687 759 
Q 2956 1122 2956 1747 
Q 2956 2369 2687 2733 
Q 2419 3097 1959 3097 
z
M 1959 3584 
Q 2709 3584 3137 3096 
Q 3566 2609 3566 1747 
Q 3566 888 3137 398 
Q 2709 -91 1959 -91 
Q 1206 -91 779 398 
Q 353 888 353 1747 
Q 353 2609 779 3096 
Q 1206 3584 1959 3584 
z
" transform="scale(0.015625)"/>
      <path id="DejaVuSans-5c" d="M 2059 -325 
Q 1816 -950 1584 -1140 
Q 1353 -1331 966 -1331 
L 506 -1331 
L 506 -850 
L 844 -850 
Q 1081 -850 1212 -737 
Q 1344 -625 1503 -206 
L 1606 56 
L 191 3500 
L 800 3500 
L 1894 763 
L 2988 3500 
L 3597 3500 
L 2059 -325 
z
" transform="scale(0.015625)"/>
     </defs>
     <use xlink:href="#DejaVuSans-28"/>
     <use xlink:href="#DejaVuSans-4f" transform="translate(63.1875 0)"/>
     <use xlink:href="#DejaVuSans-113" transform="translate(90.96875 0)"/>
     <use xlink:href="#DejaVuSans-5d" transform="translate(152.15625 0)"/>
     <use xlink:href="#DejaVuSans-50" transform="translate(204.640625 0)"/>
     <use xlink:href="#DejaVuSans-ab" transform="translate(302.046875 0)"/>
     <use xlink:href="#DejaVuSans-51" transform="translate(363.578125 0)"/>
     <use xlink:href="#DejaVuSans-5c" transform="translate(426.953125 0)"/>
     <use xlink:href="#DejaVuSans-48" transform="translate(486.140625 0)"/>
     <use xlink:href="#DejaVuSans-4e" transform="translate(547.671875 0)"/>
    </g>
    <!-- megtekintése -->
    <g style="fill: #1f2933" transform="translate(234.403312 353.999297) scale(0.12 -0.12)">
     <defs>
      <path id="DejaVuSans-4c" d="M 603 3500 
L 1178 3500 
L 1178 0 
L 603 0 
L 603 3500 
z
M 603 4863 
L 1178 4863 
L 1178 4134 
L 603 4134 
L 603 4863 
z
" transform="scale(0.015625)"/>
     </defs>
     <use xlink:href="#DejaVuSans-50"/>
     <use xlink:href="#DejaVuSans-48" transform="translate(97.40625 0)"/>
     <use xlink:href="#DejaVuSans-4a" transform="translate(158.9375 0)"/>
     <use xlink:href="#DejaVuSans-57" transform="translate(222.421875 0)"/>
     <use xlink:href="#DejaVuSans-48" transform="translate(261.625 0)"/>
     <use xlink:href="#DejaVuSans-4e" transform="translate(323.15625 0)"/>
     <use xlink:href="#DejaVuSans-4c" transform="translate(381.0625 0)"/>
     <use xlink:href="#DejaVuSans-51" transform="translate(408.84375 0)"/>
     <use xlink:href="#DejaVuSans-57" transform="translate(472.21875 0)"/>
     <use xlink:href="#DejaVuSans-ab" transform="translate(511.421875 0)"/>
     <use xlink:href="#DejaVuSans-56" transform="translate(572.953125 0)"/>
     <use xlink:href="#DejaVuSans-48" transform="translate(625.046875 0)"/>
    </g>
   </g>
   <g id="text_9">
    <!-- Kijelentkezés -->
    <g style="fill: #1f2933" transform="translate(236.205187 413.757656) scale(0.12 -0.12)">
     <use xlink:href="#DejaVuSans-2e"/>
     <use xlink:href="#DejaVuSans-4c" transform="translate(65.578125 0)"/>
     <use xlink:href="#DejaVuSans-4d" transform="translate(93.359375 0)"/>
     <use xlink:href="#DejaVuSans-48" transform="translate(121.140625 0)"/>
     <use xlink:href="#DejaVuSans-4f" transform="translate(182.671875 0)"/>
     <use xlink:href="#DejaVuSans-48" transform="translate(210.453125 0)"/>
     <use xlink:href="#DejaVuSans-51" transform="translate(271.984375 0)"/>
     <use xlink:href="#DejaVuSans-57" transform="translate(335.359375 0)"/>
     <use xlink:href="#DejaVuSans-4e" transform="translate(374.5625 0)"/>
     <use xlink:href="#DejaVuSans-48" transform="translate(428.90625 0)"/>
     <use xlink:href="#DejaVuSans-5d" transform="translate(490.4375 0)"/>
     <use xlink:href="#DejaVuSans-ab" transform="translate(542.921875 0)"/>
     <use xlink:href="#DejaVuSans-56" transform="translate(604.453125 0)"/>
    </g>
   </g>
   <g id="text_10">
    <!-- Természetes nyelvű -->
    <g style="fill: #1f2933" transform="translate(516.140008 124.246182) scale(0.115 -0.115)">
     <defs>
      <path id="DejaVuSans-37" d="M -19 4666 
L 3928 4666 
L 3928 4134 
L 2272 4134 
L 2272 0 
L 1638 0 
L 1638 4134 
L -19 4134 
L -19 4666 
z
" transform="scale(0.015625)"/>
      <path id="DejaVuSans-133" d="M 2938 5119 
L 3494 5119 
L 2719 3944 
L 2297 3944 
L 2938 5119 
z
M 1894 5119 
L 2425 5119 
L 1728 3944 
L 1300 3944 
L 1894 5119 
z
M 544 1381 
L 544 3500 
L 1119 3500 
L 1119 1403 
Q 1119 906 1312 657 
Q 1506 409 1894 409 
Q 2359 409 2629 706 
Q 2900 1003 2900 1516 
L 2900 3500 
L 3475 3500 
L 3475 0 
L 2900 0 
L 2900 538 
Q 2691 219 2414 64 
Q 2138 -91 1772 -91 
Q 1169 -91 856 284 
Q 544 659 544 1381 
z
M 1991 3584 
L 1991 3584 
z
" transform="scale(0.015625)"/>
     </defs>
     <use xlink:href="#DejaVuSans-37"/>
     <use xlink:href="#DejaVuSans-48" transform="translate(44.09375 0)"/>
     <use xlink:href="#DejaVuSans-55" transform="translate(105.625 0)"/>
     <use xlink:href="#DejaVuSans-50" transform="translate(144.984375 0)"/>
     <use xlink:href="#DejaVuSans-ab" transform="translate(242.390625 0)"/>
     <use xlink:href="#DejaVuSans-56" transform="translate(303.921875 0)"/>
     <use xlink:href="#DejaVuSans-5d" transform="translate(356.015625 0)"/>
     <use xlink:href="#DejaVuSans-48" transform="translate(408.5 0)"/>
     <use xlink:href="#DejaVuSans-57" transform="translate(470.03125 0)"/>
     <use xlink:href="#DejaVuSans-48" transform="translate(509.234375 0)"/>
     <use xlink:href="#DejaVuSans-56" transform="translate(570.765625 0)"/>
     <use xlink:href="#DejaVuSans-3" transform="translate(622.859375 0)"/>
     <use xlink:href="#DejaVuSans-51" transform="translate(654.640625 0)"/>
     <use xlink:href="#DejaVuSans-5c" transform="translate(718.015625 0)"/>
     <use xlink:href="#DejaVuSans-48" transform="translate(777.203125 0)"/>
     <use xlink:href="#DejaVuSans-4f" transform="translate(838.734375 0)"/>
     <use xlink:href="#DejaVuSans-59" transform="translate(866.515625 0)"/>
     <use xlink:href="#DejaVuSans-133" transform="translate(925.703125 0)"/>
    </g>
    <!-- magyarázat -->
    <g style="fill: #1f2933" transform="translate(538.627 138.509326) scale(0.115 -0.115)">
     <use xlink:href="#DejaVuSans-50"/>
     <use xlink:href="#DejaVuSans-44" transform="translate(97.40625 0)"/>
     <use xlink:href="#DejaVuSans-4a" transform="translate(158.6875 0)"/>
     <use xlink:href="#DejaVuSans-5c" transform="translate(222.171875 0)"/>
     <use xlink:href="#DejaVuSans-44" transform="translate(281.359375 0)"/>
     <use xlink:href="#DejaVuSans-55" transform="translate(342.640625 0)"/>
     <use xlink:href="#DejaVuSans-a3" transform="translate(383.75 0)"/>
     <use xlink:href="#DejaVuSans-5d" transform="translate(445.03125 0)"/>
     <use xlink:href="#DejaVuSans-44" transform="translate(497.515625 0)"/>
     <use xlink:href="#DejaVuSans-57" transform="translate(558.796875 0)"/>
    </g>
   </g>
   <g id="text_11">
    <!-- Rosszindulatúság- -->
    <g style="fill: #1f2933" transform="translate(520.948445 204.886182) scale(0.115 -0.115)">
     <defs>
      <path id="DejaVuSans-35" d="M 2841 2188 
Q 3044 2119 3236 1894 
Q 3428 1669 3622 1275 
L 4263 0 
L 3584 0 
L 2988 1197 
Q 2756 1666 2539 1819 
Q 2322 1972 1947 1972 
L 1259 1972 
L 1259 0 
L 628 0 
L 628 4666 
L 2053 4666 
Q 2853 4666 3247 4331 
Q 3641 3997 3641 3322 
Q 3641 2881 3436 2590 
Q 3231 2300 2841 2188 
z
M 1259 4147 
L 1259 2491 
L 2053 2491 
Q 2509 2491 2742 2702 
Q 2975 2913 2975 3322 
Q 2975 3731 2742 3939 
Q 2509 4147 2053 4147 
L 1259 4147 
z
" transform="scale(0.015625)"/>
      <path id="DejaVuSans-58" d="M 544 1381 
L 544 3500 
L 1119 3500 
L 1119 1403 
Q 1119 906 1312 657 
Q 1506 409 1894 409 
Q 2359 409 2629 706 
Q 2900 1003 2900 1516 
L 2900 3500 
L 3475 3500 
L 3475 0 
L 2900 0 
L 2900 538 
Q 2691 219 2414 64 
Q 2138 -91 1772 -91 
Q 1169 -91 856 284 
Q 544 659 544 1381 
z
M 1991 3584 
L 1991 3584 
z
" transform="scale(0.015625)"/>
      <path id="DejaVuSans-bc" d="M 544 1381 
L 544 3500 
L 1119 3500 
L 1119 1403 
Q 1119 906 1312 657 
Q 1506 409 1894 409 
Q 2359 409 2629 706 
Q 2900 1003 2900 1516 
L 2900 3500 
L 3475 3500 
L 3475 0 
L 2900 0 
L 2900 538 
Q 2691 219 2414 64 
Q 2138 -91 1772 -91 
Q 1169 -91 856 284 
Q 544 659 544 1381 
z
M 1991 3584 
L 1991 3584 
z
M 2418 5119 
L 3040 5119 
L 2022 3944 
L 1543 3944 
L 2418 5119 
z
" transform="scale(0.015625)"/>
     </defs>
     <use xlink:href="#DejaVuSans-35"/>
     <use xlink:href="#DejaVuSans-52" transform="translate(65 0)"/>
     <use xlink:href="#DejaVuSans-56" transform="translate(126.1875 0)"/>
     <use xlink:href="#DejaVuSans-56" transform="translate(178.28125 0)"/>
     <use xlink:href="#DejaVuSans-5d" transform="translate(230.375 0)"/>
     <use xlink:href="#DejaVuSans-4c" transform="translate(282.859375 0)"/>
     <use xlink:href="#DejaVuSans-51" transform="translate(310.640625 0)"/>
     <use xlink:href="#DejaVuSans-47" transform="translate(374.015625 0)"/>
     <use xlink:href="#DejaVuSans-58" transform="translate(437.5 0)"/>
     <use xlink:href="#DejaVuSans-4f" transform="translate(500.875 0)"/>
     <use xlink:href="#DejaVuSans-44" transform="translate(528.65625 0)"/>
     <use xlink:href="#DejaVuSans-57" transform="translate(589.9375 0)"/>
     <use xlink:href="#DejaVuSans-bc" transform="translate(629.140625 0)"/>
     <use xlink:href="#DejaVuSans-56" transform="translate(692.515625 0)"/>
     <use xlink:href="#DejaVuSans-a3" transform="translate(744.609375 0)"/>
     <use xlink:href="#DejaVuSans-4a" transform="translate(805.890625 0)"/>
     <use xlink:href="#DejaVuSans-10" transform="translate(869.375 0)"/>
    </g>
    <!-- osztályozás -->
    <g style="fill: #1f2933" transform="translate(539.646727 219.149326) scale(0.115 -0.115)">
     <use xlink:href="#DejaVuSans-52"/>
     <use xlink:href="#DejaVuSans-56" transform="translate(61.1875 0)"/>
     <use xlink:href="#DejaVuSans-5d" transform="translate(113.28125 0)"/>
     <use xlink:href="#DejaVuSans-57" transform="translate(165.765625 0)"/>
     <use xlink:href="#DejaVuSans-a3" transform="translate(204.96875 0)"/>
     <use xlink:href="#DejaVuSans-4f" transform="translate(266.25 0)"/>
     <use xlink:href="#DejaVuSans-5c" transform="translate(294.03125 0)"/>
     <use xlink:href="#DejaVuSans-52" transform="translate(353.21875 0)"/>
     <use xlink:href="#DejaVuSans-5d" transform="translate(414.40625 0)"/>
     <use xlink:href="#DejaVuSans-a3" transform="translate(466.890625 0)"/>
     <use xlink:href="#DejaVuSans-56" transform="translate(528.171875 0)"/>
    </g>
   </g>
   <g id="text_12">
    <!-- Képvalidáció -->
    <g style="fill: #1f2933" transform="translate(536.766336 292.657754) scale(0.115 -0.115)">
     <defs>
      <path id="DejaVuSans-46" d="M 3122 3366 
L 3122 2828 
Q 2878 2963 2633 3030 
Q 2388 3097 2138 3097 
Q 1578 3097 1268 2742 
Q 959 2388 959 1747 
Q 959 1106 1268 751 
Q 1578 397 2138 397 
Q 2388 397 2633 464 
Q 2878 531 3122 666 
L 3122 134 
Q 2881 22 2623 -34 
Q 2366 -91 2075 -91 
Q 1284 -91 818 406 
Q 353 903 353 1747 
Q 353 2603 823 3093 
Q 1294 3584 2113 3584 
Q 2378 3584 2631 3529 
Q 2884 3475 3122 3366 
z
" transform="scale(0.015625)"/>
     </defs>
     <use xlink:href="#DejaVuSans-2e"/>
     <use xlink:href="#DejaVuSans-ab" transform="translate(60.59375 0)"/>
     <use xlink:href="#DejaVuSans-53" transform="translate(122.125 0)"/>
     <use xlink:href="#DejaVuSans-59" transform="translate(185.609375 0)"/>
     <use xlink:href="#DejaVuSans-44" transform="translate(244.796875 0)"/>
     <use xlink:href="#DejaVuSans-4f" transform="translate(306.078125 0)"/>
     <use xlink:href="#DejaVuSans-4c" transform="translate(333.859375 0)"/>
     <use xlink:href="#DejaVuSans-47" transform="translate(361.640625 0)"/>
     <use xlink:href="#DejaVuSans-a3" transform="translate(425.125 0)"/>
     <use xlink:href="#DejaVuSans-46" transform="translate(486.40625 0)"/>
     <use xlink:href="#DejaVuSans-4c" transform="translate(541.390625 0)"/>
     <use xlink:href="#DejaVuSans-b5" transform="translate(569.171875 0)"/>
    </g>
   </g>
   <g id="text_13">
    <g id="patch_16">
     <path d="M 423.593 123.408391 
L 472.168 123.408391 
Q 473.168 123.408391 473.168 122.408391 
L 473.168 112.407609 
Q 473.168 111.407609 472.168 111.407609 
L 423.593 111.407609 
Q 422.593 111.407609 422.593 112.407609 
L 422.593 122.408391 
Q 422.593 123.408391 423.593 123.408391 
z
" style="fill: #ffffff"/>
    </g>
    <!-- «include» -->
    <g style="fill: #64748b" transform="translate(423.593 120.006047) scale(0.1 -0.1)">
     <defs>
      <path id="DejaVuSans-Oblique-6d" d="M 2163 3309 
L 2041 2681 
L 934 1838 
L 1722 1006 
L 1606 441 
L 397 1747 
L 447 2003 
L 2163 3309 
z
M 3553 3309 
L 3431 2681 
L 2322 1838 
L 3109 1006 
L 2994 441 
L 1784 1747 
L 1838 2003 
L 3553 3309 
z
" transform="scale(0.015625)"/>
      <path id="DejaVuSans-Oblique-51" d="M 3566 2113 
L 3156 0 
L 2578 0 
L 2988 2091 
Q 3016 2238 3031 2350 
Q 3047 2463 3047 2528 
Q 3047 2791 2881 2937 
Q 2716 3084 2419 3084 
Q 1956 3084 1622 2776 
Q 1288 2469 1184 1941 
L 800 0 
L 225 0 
L 903 3500 
L 1478 3500 
L 1363 2950 
Q 1603 3253 1940 3418 
Q 2278 3584 2650 3584 
Q 3113 3584 3367 3334 
Q 3622 3084 3622 2631 
Q 3622 2519 3608 2391 
Q 3594 2263 3566 2113 
z
" transform="scale(0.015625)"/>
      <path id="DejaVuSans-Oblique-46" d="M 3431 3366 
L 3316 2797 
Q 3109 2947 2876 3022 
Q 2644 3097 2394 3097 
Q 2119 3097 1870 3000 
Q 1622 2903 1453 2725 
Q 1184 2453 1037 2087 
Q 891 1722 891 1331 
Q 891 859 1127 628 
Q 1363 397 1844 397 
Q 2081 397 2348 469 
Q 2616 541 2906 684 
L 2797 116 
Q 2547 13 2283 -39 
Q 2019 -91 1741 -91 
Q 1044 -91 669 257 
Q 294 606 294 1253 
Q 294 1797 489 2255 
Q 684 2713 1069 3078 
Q 1331 3328 1684 3456 
Q 2038 3584 2456 3584 
Q 2700 3584 2940 3529 
Q 3181 3475 3431 3366 
z
" transform="scale(0.015625)"/>
      <path id="DejaVuSans-Oblique-58" d="M 428 1388 
L 838 3500 
L 1416 3500 
L 1006 1409 
Q 975 1256 961 1147 
Q 947 1038 947 966 
Q 947 700 1109 554 
Q 1272 409 1569 409 
Q 2031 409 2368 721 
Q 2706 1034 2809 1563 
L 3194 3500 
L 3769 3500 
L 3091 0 
L 2516 0 
L 2631 550 
Q 2388 244 2052 76 
Q 1716 -91 1338 -91 
Q 878 -91 622 161 
Q 366 413 366 863 
Q 366 956 381 1097 
Q 397 1238 428 1388 
z
" transform="scale(0.015625)"/>
      <path id="DejaVuSans-Oblique-47" d="M 2675 525 
Q 2444 222 2128 65 
Q 1813 -91 1428 -91 
Q 903 -91 598 267 
Q 294 625 294 1247 
Q 294 1766 478 2236 
Q 663 2706 1013 3078 
Q 1244 3325 1534 3454 
Q 1825 3584 2144 3584 
Q 2481 3584 2739 3421 
Q 2997 3259 3138 2956 
L 3513 4863 
L 4091 4863 
L 3144 0 
L 2566 0 
L 2675 525 
z
M 891 1350 
Q 891 897 1095 644 
Q 1300 391 1663 391 
Q 1931 391 2161 520 
Q 2391 650 2566 903 
Q 2750 1166 2856 1509 
Q 2963 1853 2963 2188 
Q 2963 2622 2758 2865 
Q 2553 3109 2194 3109 
Q 1922 3109 1687 2981 
Q 1453 2853 1288 2613 
Q 1106 2353 998 2009 
Q 891 1666 891 1350 
z
" transform="scale(0.015625)"/>
      <path id="DejaVuSans-Oblique-7d" d="M 1778 441 
L 1900 1069 
L 3009 1913 
L 2222 2747 
L 2344 3309 
L 3547 2003 
L 3500 1747 
L 1778 441 
z
M 397 441 
L 519 1069 
L 1619 1913 
L 838 2747 
L 953 3309 
L 2156 2003 
L 2113 1747 
L 397 441 
z
" transform="scale(0.015625)"/>
     </defs>
     <use xlink:href="#DejaVuSans-Oblique-6d"/>
     <use xlink:href="#DejaVuSans-Oblique-4c" transform="translate(61.71875 0)"/>
     <use xlink:href="#DejaVuSans-Oblique-51" transform="translate(89.5 0)"/>
     <use xlink:href="#DejaVuSans-Oblique-46" transform="translate(152.875 0)"/>
     <use xlink:href="#DejaVuSans-Oblique-4f" transform="translate(207.859375 0)"/>
     <use xlink:href="#DejaVuSans-Oblique-58" transform="translate(235.640625 0)"/>
     <use xlink:href="#DejaVuSans-Oblique-47" transform="translate(299.015625 0)"/>
     <use xlink:href="#DejaVuSans-Oblique-48" transform="translate(362.5 0)"/>
     <use xlink:href="#DejaVuSans-Oblique-7d" transform="translate(424.03125 0)"/>
    </g>
   </g>
   <g id="text_14">
    <g id="patch_17">
     <path d="M 423.593 204.048391 
L 472.168 204.048391 
Q 473.168 204.048391 473.168 203.048391 
L 473.168 193.047609 
Q 473.168 192.047609 472.168 192.047609 
L 423.593 192.047609 
Q 422.593 192.047609 422.593 193.047609 
L 422.593 203.048391 
Q 422.593 204.048391 423.593 204.048391 
z
" style="fill: #ffffff"/>
    </g>
    <!-- «include» -->
    <g style="fill: #64748b" transform="translate(423.593 200.646047) scale(0.1 -0.1)">
     <use xlink:href="#DejaVuSans-Oblique-6d"/>
     <use xlink:href="#DejaVuSans-Oblique-4c" transform="translate(61.71875 0)"/>
     <use xlink:href="#DejaVuSans-Oblique-51" transform="translate(89.5 0)"/>
     <use xlink:href="#DejaVuSans-Oblique-46" transform="translate(152.875 0)"/>
     <use xlink:href="#DejaVuSans-Oblique-4f" transform="translate(207.859375 0)"/>
     <use xlink:href="#DejaVuSans-Oblique-58" transform="translate(235.640625 0)"/>
     <use xlink:href="#DejaVuSans-Oblique-47" transform="translate(299.015625 0)"/>
     <use xlink:href="#DejaVuSans-Oblique-48" transform="translate(362.5 0)"/>
     <use xlink:href="#DejaVuSans-Oblique-7d" transform="translate(424.03125 0)"/>
    </g>
   </g>
   <g id="text_15">
    <g id="patch_18">
     <path d="M 423.593 284.688391 
L 472.168 284.688391 
Q 473.168 284.688391 473.168 283.688391 
L 473.168 273.687609 
Q 473.168 272.687609 472.168 272.687609 
L 423.593 272.687609 
Q 422.593 272.687609 422.593 273.687609 
L 422.593 283.688391 
Q 422.593 284.688391 423.593 284.688391 
z
" style="fill: #ffffff"/>
    </g>
    <!-- «include» -->
    <g style="fill: #64748b" transform="translate(423.593 281.286047) scale(0.1 -0.1)">
     <use xlink:href="#DejaVuSans-Oblique-6d"/>
     <use xlink:href="#DejaVuSans-Oblique-4c" transform="translate(61.71875 0)"/>
     <use xlink:href="#DejaVuSans-Oblique-51" transform="translate(89.5 0)"/>
     <use xlink:href="#DejaVuSans-Oblique-46" transform="translate(152.875 0)"/>
     <use xlink:href="#DejaVuSans-Oblique-4f" transform="translate(207.859375 0)"/>
     <use xlink:href="#DejaVuSans-Oblique-58" transform="translate(235.640625 0)"/>
     <use xlink:href="#DejaVuSans-Oblique-47" transform="translate(299.015625 0)"/>
     <use xlink:href="#DejaVuSans-Oblique-48" transform="translate(362.5 0)"/>
     <use xlink:href="#DejaVuSans-Oblique-7d" transform="translate(424.03125 0)"/>
    </g>
   </g>
  </g>
 </g>
 <defs>
  <clipPath id="pb0d1080d6f">
   <rect x="7.2" y="7.2" width="725.4" height="443.52"/>
  </clipPath>
 </defs>
</svg>
